<svg width="38" height="36" viewBox="0 0 38 36" fill="none" xmlns="http://www.w3.org/2000/svg">
<path d="M0.935547 18.6091C0.935547 17.9247 0.935547 17.2402 0.935547 16.5558C0.953515 16.436 0.980468 16.3162 0.998437 16.1964C1.08828 15.5633 1.1332 14.9302 1.25898 14.3056C1.95077 10.8234 3.62185 7.81181 6.23628 5.29643C8.98547 2.66126 12.2827 0.992895 16.137 0.359771C16.8288 0.248547 17.5295 0.180101 18.2303 0.0945435C18.949 0.0945435 19.6678 0.0945435 20.3865 0.0945435C20.4943 0.111655 20.5932 0.137322 20.701 0.154434C21.6893 0.299881 22.7045 0.385438 23.6927 0.607887C33.1173 2.75538 39.1906 11.7731 37.3489 20.8507C36.5852 24.6238 34.7344 27.8408 31.7517 30.4246C27.5021 34.1121 22.4709 35.5837 16.7748 34.8907C13.1452 34.4544 9.95577 33.0341 7.21556 30.7326C3.9902 28.0204 1.96874 24.6409 1.22304 20.5941C1.09726 19.9353 1.02539 19.2679 0.935547 18.6091ZM14.942 19.2936C10.7554 16.4189 10.7554 11.3197 13.4327 8.41927C16.2717 5.33921 21.0963 4.96275 24.2767 7.57225C25.84 8.85561 26.7833 10.4641 26.972 12.4234C27.2505 15.281 26.0736 17.5482 23.6658 19.285C27.7357 20.8593 30.3501 23.6314 31.545 27.6354C36.8008 22.04 37.295 12.3378 30.1794 6.16911C23.1178 0.0432092 12.2647 0.98434 6.41596 8.24815C0.908594 15.0842 3.0199 23.5715 7.06283 27.6012C8.24876 23.6142 10.8812 20.8593 14.942 19.2936ZM19.5959 33.0256C19.9822 32.9913 20.674 32.9657 21.3568 32.8801C24.106 32.555 26.5947 31.6053 28.8228 30.0482C29.7661 29.3894 29.7571 29.3723 29.4696 28.2771C28.1579 23.1351 22.992 19.8925 17.5295 20.7737C13.0733 21.4924 9.55148 24.9489 8.94055 29.2268C8.92258 29.3295 9.00344 29.4835 9.0843 29.5519C12.0671 31.8277 15.4721 32.9742 19.5959 33.0256ZM19.2815 18.4979C22.3361 18.515 24.8337 16.1622 24.8787 13.2276C24.9236 10.3358 22.417 7.91448 19.3533 7.88026C16.2897 7.84604 13.7651 10.2074 13.7202 13.1591C13.6753 16.0681 16.1909 18.4808 19.2815 18.4979Z" fill="white"/>
</svg>
