<svg width="652" height="734" viewBox="0 0 652 734" fill="none" xmlns="http://www.w3.org/2000/svg">
<path d="M0.140823 291.496C28.1981 219.226 90.767 166.635 166.192 161.573C167.766 161.468 169.209 161.371 170.783 161.265C172.358 161.16 173.801 161.063 175.375 160.957C282.02 153.8 373.837 244.273 380.312 363.204C386.779 481.988 305.577 584.073 198.8 591.24C197.226 591.345 195.783 591.442 194.209 591.548C192.635 591.653 191.192 591.75 189.618 591.856C114.193 596.918 46.2428 553.087 10.6804 485.087C57.1608 637.552 190.875 743.104 342.119 732.953C523.534 720.778 661.664 547.124 650.663 345.059C639.662 142.995 483.698 -10.9215 302.283 1.25388C151.039 11.4045 29.7418 133.924 0.140823 291.496Z" fill="#5EBFF0" fill-opacity="0.25"/>
</svg>
