<svg width="579" height="618" viewBox="0 0 579 618" fill="none" xmlns="http://www.w3.org/2000/svg">
<g clip-path="url(#clip0_4_1298)">
<path d="M189.719 203.104C187.21 190.941 175.63 179.743 159.804 183.218C143.978 186.694 143.978 201.366 146.294 213.53C146.487 214.109 154.207 246.93 158.839 253.88C163.471 260.83 170.033 273.959 181.227 270.097C188.561 267.588 193 254.459 194.737 244.999C196.474 235.539 189.719 203.104 189.719 203.104Z" fill="#F9BB8D"/>
<path d="M391.018 202.718C393.334 190.555 404.914 179.357 420.74 182.832C436.566 186.307 438.11 201.56 435.794 213.53C435.601 214.109 427.302 244.42 423.249 253.88C419.968 261.603 411.09 275.117 399.703 270.291C392.562 267.395 387.737 254.073 386 244.613C384.263 235.153 391.018 202.718 391.018 202.718Z" fill="#F9BB8D"/>
<path d="M44.39 573.788H535.189C535.189 573.788 525.539 453.316 509.327 435.168C493.308 417.02 370.56 376.669 370.56 376.669L210.177 376.283C210.177 376.283 81.06 414.124 72.182 435.168C63.497 456.405 44.39 573.788 44.39 573.788Z" fill="#6C8787"/>
<path d="M274.253 376.476L210.177 376.283C210.177 376.283 81.06 414.124 72.182 435.168C63.497 456.405 44.39 573.788 44.39 573.788H109.045C109.045 573.788 128.152 456.405 137.03 435.168C145.522 414.896 264.989 379.372 274.253 376.476Z" fill="#4A6464"/>
<path d="M227.547 368.56C227.547 368.56 267.884 401.768 290.658 401.768C313.239 401.768 353.769 368.56 353.769 368.56C353.769 368.56 336.592 348.675 348.365 322.418C360.138 296.354 216.932 298.478 233.53 322.418C250.128 346.358 227.547 368.56 227.547 368.56Z" fill="#D99870"/>
<path d="M269.428 395.59C272.516 387.288 278.499 378.986 288.149 371.843C297.799 364.699 303.589 371.07 344.698 347.516C343.54 340.373 344.119 331.685 348.365 322.225C360.138 296.161 216.932 298.285 233.53 322.225C250.128 346.165 227.547 368.367 227.547 368.367C227.547 368.367 248.97 386.129 269.428 395.59Z" fill="#9F7053" fill-opacity="0.6"/>
<path d="M219.441 366.051L209.984 376.283C209.984 376.283 237.969 445.207 262.094 454.088C269.428 456.791 284.868 422.619 290.272 422.619C292.781 422.619 313.625 458.915 316.906 458.142C341.803 452.544 370.174 376.862 370.174 376.862L359.752 368.947L290.272 412.579L219.441 366.051Z" fill="#C5D2DB"/>
<path d="M406.458 111.978C406.458 59.4639 373.841 6.56421 287.57 6.56421C201.299 6.56421 170.033 64.2905 170.033 116.804C170.033 119.507 169.84 262.568 186.438 295.389C203.229 328.21 249.356 361.803 290.465 361.803C335.434 361.996 375.964 333.037 394.878 295.389C413.792 257.741 406.458 111.978 406.458 111.978Z" fill="#F9BB8D"/>
<path d="M203.229 123.754C204.001 124.334 204.58 124.72 205.545 125.299C207.861 127.423 196.088 153.873 199.562 154.066C216.546 157.734 237.197 120.665 253.795 125.878C283.131 134.952 338.522 209.089 392.755 207.738C407.037 194.03 406.458 111.978 406.458 111.978C406.458 59.4639 373.841 6.56421 287.57 6.56421C216.16 6.56421 182.385 46.1425 172.928 89.7751C186.438 95.374 197.632 106.379 203.229 123.754Z" fill="#D49F77" fill-opacity="0.831373"/>
<path d="M324.433 324.349C283.324 324.156 237.197 290.755 220.406 257.934C203.615 225.113 204.001 82.0525 204.001 79.3496C204.001 61.0085 207.861 42.2812 216.546 25.2915C183.736 46.5286 170.419 82.8248 170.419 116.997C170.419 119.7 170.226 262.761 186.824 295.582C203.615 328.403 249.742 361.996 290.851 361.996C333.311 362.189 371.911 336.319 391.983 301.567C372.49 315.661 349.137 324.542 324.433 324.349Z" fill="#D49F77"/>
<path d="M391.018 302.532C391.211 302.146 391.404 301.953 391.597 301.76C390.632 302.532 389.667 303.112 388.702 303.691C389.474 303.305 390.246 302.918 391.018 302.532Z" fill="#F0E8E4"/>
<path d="M310.151 350.992C269.042 350.799 222.915 317.398 206.124 284.577C189.333 251.756 189.719 108.695 189.719 105.993C189.719 82.4386 196.281 57.9194 210.949 38.0338C212.493 33.7863 214.23 29.5389 216.353 25.4846C183.543 46.7217 170.226 83.0178 170.226 117.19C170.226 119.893 170.033 262.954 186.631 295.775C203.422 328.596 249.549 362.189 290.658 362.189C314.011 362.189 336.013 354.274 354.541 341.531C340.645 347.516 325.591 350.992 310.151 350.992Z" fill="#D49F77"/>
<path d="M425.758 99.4283C415.143 41.5089 367.858 -0.386107 290.658 2.2715e-05C213.651 0.386152 162.892 47.687 152.856 101.359C148.61 124.334 145.136 167.966 146.873 194.03C159.997 183.218 165.208 181.867 171.577 184.377C175.823 231.678 186.245 230.905 186.245 230.905C186.245 230.905 187.21 198.857 189.333 177.62C191.456 156.382 226.196 152.521 243.566 115.839C298.571 113.522 333.311 183.798 393.527 187.659C387.544 222.604 400.861 236.311 400.861 236.311C400.861 236.311 402.212 207.545 407.037 193.837C411.283 181.867 423.828 181.867 430.197 187.08C433.092 165.65 431.548 131.284 425.758 99.4283Z" fill="#3D2216"/>
<g opacity="0.5">
<path d="M425.758 99.4283C415.143 41.5089 367.858 -0.386107 290.658 2.2715e-05C222.915 0.386152 175.63 36.8754 158.26 82.0525C179.876 44.9841 223.494 16.9897 282.552 16.6036C359.752 16.2175 407.037 58.1125 417.652 116.032C421.898 139.586 423.828 164.298 423.442 184.184C425.951 184.57 428.267 185.728 430.197 187.08C433.092 165.65 431.548 131.284 425.758 99.4283Z" fill="#3A1F13"/>
</g>
<path d="M243.373 88.2306C226.003 124.913 170.033 159.471 146.873 166.422C146.873 165.263 146.68 163.912 146.68 162.56C146.294 173.951 146.294 184.956 146.873 193.837C159.997 183.025 165.208 181.674 171.577 184.184C175.823 231.485 186.245 230.712 186.245 230.712C186.245 230.712 187.21 198.857 189.333 177.62C191.456 156.382 226.196 152.521 243.566 115.839C298.378 113.522 332.925 183.218 392.755 187.659C348.558 172.214 298.378 85.9138 243.373 88.2306Z" fill="#3D2216"/>
<path d="M219.441 349.64L209.984 376.283C209.984 376.283 237.969 428.99 262.094 437.678C269.428 440.381 284.868 406.208 290.272 406.208C292.781 406.208 313.625 442.504 316.906 441.732C341.803 436.133 370.174 376.862 370.174 376.862L359.752 352.536L290.272 396.169L219.441 349.64Z" fill="white"/>
<path d="M197.825 596.763H155.172C154.207 596.763 153.435 595.991 153.435 595.025C153.435 594.06 154.207 593.288 155.172 593.288H197.825C198.79 593.288 199.562 594.06 199.562 595.025C199.562 595.991 198.79 596.763 197.825 596.763Z" fill="#070B0C"/>
<path d="M471.885 596.763H460.691C459.726 596.763 458.954 595.991 458.954 595.025C458.954 594.06 459.726 593.288 460.691 593.288H471.885C472.85 593.288 473.622 594.06 473.622 595.025C473.429 595.991 472.657 596.763 471.885 596.763Z" fill="#070B0C"/>
<path d="M279.271 596.763H236.618C235.653 596.763 234.881 595.991 234.881 595.025C234.881 594.06 235.653 593.288 236.618 593.288H279.271C280.236 593.288 281.008 594.06 281.008 595.025C280.815 595.991 280.236 596.763 279.271 596.763Z" fill="#070B0C"/>
<path d="M342.768 596.763H300.115C299.15 596.763 298.378 595.991 298.378 595.025C298.378 594.06 299.15 593.288 300.115 593.288H342.768C343.733 593.288 344.505 594.06 344.505 595.025C344.312 595.991 343.54 596.763 342.768 596.763Z" fill="#070B0C"/>
<path d="M420.354 596.763H362.068C361.103 596.763 360.331 595.991 360.331 595.025C360.331 594.06 361.103 593.288 362.068 593.288H420.354C421.319 593.288 422.091 594.06 422.091 595.025C422.091 595.991 421.319 596.763 420.354 596.763Z" fill="#070B0C"/>
<path d="M212.686 408.718C212.686 408.718 208.054 405.822 201.492 407.946C194.737 410.262 193.386 418.757 194.93 425.901C196.667 432.851 187.403 456.791 187.403 456.791C187.403 456.791 192.228 463.162 208.826 460.845C208.826 460.845 221.371 439.222 220.406 423.584C219.441 407.946 212.686 408.718 212.686 408.718Z" fill="#0F3944"/>
<path d="M217.897 435.747C224.266 433.816 227.933 438.836 231.6 448.103C235.267 457.37 236.425 458.336 236.425 458.336L250.321 466.83L249.163 471.85C249.163 471.85 236.039 466.83 232.758 463.741C229.477 460.652 220.406 444.628 220.406 444.628L217.897 435.747Z" fill="#EE6F4D"/>
<path d="M187.403 495.79C187.403 495.79 184.701 508.918 185.087 528.804C185.087 528.804 174.279 543.863 183.157 587.11H187.789C187.789 587.11 191.649 550.234 194.544 540.388C197.439 530.349 208.247 527.453 208.826 497.142L187.403 495.79Z" fill="#F18969"/>
<path d="M166.173 534.596C163.471 526.101 156.523 511.814 138.767 492.508C138.767 492.508 137.609 491.929 136.258 492.894C134.714 493.859 134.714 494.825 134.714 494.825C134.714 494.825 143.592 513.359 149.382 527.067C151.312 531.7 155.944 534.596 161.155 534.596H166.173Z" fill="#F18969"/>
<path d="M198.597 551.2C198.597 551.2 198.597 557.571 194.351 557.571C188.175 557.764 187.982 551.393 181.034 551.586C174.086 551.779 159.611 553.516 155.172 543.091C152.856 537.685 156.137 530.735 148.417 525.522C140.89 520.309 144.557 514.517 148.417 511.428C152.277 508.339 146.68 504.864 150.733 503.32C151.698 502.934 152.663 502.934 153.628 503.32C154.207 503.513 154.593 503.706 155.172 504.092C157.295 505.443 158.839 507.953 158.839 507.953C170.419 477.642 190.877 473.781 190.877 473.781L211.142 480.538C211.528 527.26 198.597 551.2 198.597 551.2Z" fill="#174453"/>
<path d="M217.897 435.747C217.897 435.747 213.072 437.291 206.317 436.326C199.562 435.361 197.439 431.306 192.614 433.816C185.473 437.678 188.754 451.192 190.684 458.142C191.263 460.845 192.228 467.603 190.491 473.202C190.491 473.202 199.948 480.345 210.756 479.959L216.739 467.603C216.932 467.796 229.863 452.93 217.897 435.747Z" fill="#D9DFE4"/>
<path d="M205.931 424.356C205.931 424.356 206.703 430.727 204.194 436.519C204.194 436.519 207.668 441.539 211.142 438.257C211.142 438.257 211.528 432.465 215.195 425.708C217.704 421.267 205.931 424.356 205.931 424.356Z" fill="#EE6F4D"/>
<path d="M200.527 424.549C200.527 424.549 197.632 422.812 197.825 425.515C198.211 428.797 201.492 429.376 201.878 428.217C202.264 427.059 200.527 424.549 200.527 424.549Z" fill="#F18969"/>
<path d="M217.511 421.074C217.511 421.074 219.441 418.178 220.406 420.881C221.564 423.97 218.862 425.901 217.897 424.935C217.125 424.163 217.511 421.074 217.511 421.074Z" fill="#F18969"/>
<path d="M211.335 434.202C205.931 435.361 202.071 432.658 199.755 422.619C198.597 417.406 200.527 413.545 206.51 412.386C212.493 411.035 215.774 413.738 217.125 418.95C219.634 429.569 216.932 433.044 211.335 434.202Z" fill="#F18969"/>
<path d="M216.16 422.812C216.353 423.391 215.967 423.97 215.388 424.163C214.809 424.356 214.037 424.163 213.844 423.777C213.651 423.198 214.037 422.619 214.616 422.426C215.388 422.039 215.967 422.232 216.16 422.812Z" fill="#DC624E"/>
<path d="M205.159 425.515C205.159 426.094 204.773 426.48 204.001 426.673C203.229 426.866 202.65 426.48 202.65 425.901C202.65 425.322 203.036 424.935 203.808 424.742C204.58 424.549 205.159 424.935 205.159 425.515Z" fill="#DC624E"/>
<path d="M212.493 417.985C211.335 417.406 210.177 417.599 210.177 417.599C209.984 417.599 209.791 417.599 209.791 417.406C209.791 417.213 209.791 417.213 209.984 417.02C209.984 417.02 211.528 416.634 212.686 417.406C212.879 417.406 212.879 417.599 212.686 417.792C212.686 417.985 212.493 417.985 212.493 417.985Z" fill="#0F3944"/>
<path d="M202.457 420.302C202.264 420.302 202.264 420.302 202.457 420.302C202.264 420.109 202.071 420.109 202.264 419.916C203.036 418.757 204.387 418.564 204.58 418.564C204.773 418.564 204.966 418.564 204.966 418.757C204.966 418.95 204.966 418.95 204.773 419.143C204.773 419.143 203.422 419.336 202.843 420.302C202.457 420.109 202.457 420.302 202.457 420.302Z" fill="#0F3944"/>
<path d="M212.686 420.881C212.879 421.46 212.686 422.039 212.3 422.232C211.914 422.232 211.528 421.846 211.335 421.267C211.142 420.688 211.335 420.109 211.721 419.916C212.107 419.723 212.493 420.302 212.686 420.881Z" fill="#1D4C55"/>
<path d="M205.352 422.426C205.545 423.005 205.352 423.584 204.966 423.777C204.58 423.777 204.194 423.391 204.001 422.812C203.808 422.232 204.001 421.653 204.387 421.46C204.773 421.267 205.159 421.846 205.352 422.426Z" fill="#1D4C55"/>
<path d="M207.668 428.411C207.668 428.411 211.142 428.217 212.686 426.866C212.686 426.866 212.3 429.376 210.37 429.569C208.44 429.955 207.668 428.411 207.668 428.411Z" fill="#1D4C55"/>
<path d="M210.756 420.881C210.756 420.881 210.949 419.143 211.528 419.143C212.107 419.143 213.072 420.302 213.072 420.302L213.844 419.53L212.879 419.916C212.879 419.916 212.107 418.564 211.335 418.757C210.756 419.143 210.756 420.881 210.756 420.881Z" fill="#1D4C55"/>
<path d="M205.738 422.232C205.738 422.232 204.966 420.688 204.194 421.074C203.615 421.267 203.422 422.812 203.422 422.812L202.264 422.619H203.229C203.229 422.619 203.422 421.074 204.001 420.881C204.966 420.495 205.738 422.232 205.738 422.232Z" fill="#1D4C55"/>
<path d="M209.405 425.515L209.212 424.935C209.598 424.742 209.791 424.356 209.598 424.163C209.598 423.777 209.212 423.584 209.019 423.584C208.826 423.584 208.826 423.584 208.826 423.777L208.247 423.584C208.44 423.005 209.019 423.005 209.212 423.005C209.598 423.005 210.177 423.391 210.177 423.97C210.37 424.742 209.984 425.128 209.405 425.515Z" fill="#DC624E"/>
<path d="M200.913 426.48C200.913 426.48 199.176 420.688 200.334 416.441C200.334 416.441 204.966 410.262 214.037 413.351C214.037 413.351 216.739 417.406 218.09 423.198C218.09 423.198 218.476 421.074 217.511 416.441C216.546 411.807 212.3 408.911 206.51 409.876C200.527 410.842 194.158 416.441 200.913 426.48Z" fill="#0F3944"/>
<path d="M210.37 412C210.37 412 210.756 413.545 209.212 417.406C209.212 417.406 208.054 416.247 206.703 417.406C205.352 418.564 202.65 418.178 201.878 418.757C200.913 419.336 200.913 420.688 200.913 420.688C200.913 420.688 200.141 418.95 200.913 416.827C200.913 416.827 199.176 418.95 199.369 421.653C199.369 421.653 197.053 421.267 197.053 417.599C197.246 413.738 202.843 407.753 209.019 408.139C215.388 408.525 216.739 417.985 216.739 417.985C216.739 417.985 216.16 417.599 215.195 417.792C215.195 417.792 215.002 415.861 213.651 413.158C213.651 413.158 214.23 415.089 213.651 417.02C213.651 417.02 211.914 416.054 210.563 416.441C210.756 416.441 211.721 414.896 210.37 412Z" fill="#0F3944"/>
<path d="M191.263 434.975C194.351 432.658 196.667 435.554 197.246 439.608C197.825 443.663 192.228 467.603 187.982 466.83C186.245 466.444 185.666 460.266 185.666 460.266C185.666 460.266 187.403 453.509 188.368 443.47C188.947 438.643 189.526 436.133 191.263 434.975Z" fill="#F18969"/>
<path d="M182.192 463.548C178.139 459.88 170.612 447.331 168.875 440.96L171.963 439.801C171.963 439.801 181.42 452.737 185.666 456.019C189.912 459.301 191.456 462.969 189.526 466.058C187.596 468.954 183.157 464.321 182.192 463.548Z" fill="#F18969"/>
<path d="M170.226 432.465C170.033 436.519 173.507 437.485 171.963 440.574C171.577 441.153 171.191 441.539 170.612 441.732C169.647 442.118 168.682 441.732 167.91 441.153C166.173 439.608 163.664 437.871 162.313 437.098C160.769 436.326 161.734 435.94 161.734 435.94C161.541 435.94 161.348 435.747 161.348 435.747C160.19 435.361 159.418 435.168 160.19 434.589C161.155 434.009 164.243 435.168 164.243 435.168C160.19 432.465 159.032 433.237 159.804 432.658C160.769 431.886 164.822 433.623 164.822 433.623C162.699 431.693 160.962 431.113 161.927 430.92C162.892 430.534 167.138 433.623 168.682 434.782C169.068 434.975 169.261 435.168 169.261 435.168C169.068 432.079 170.226 432.465 170.226 432.465Z" fill="#F18969"/>
<path d="M168.489 434.975C168.875 435.168 169.068 435.361 169.068 435.361C169.068 435.361 168.296 436.519 169.261 438.064C169.261 438.257 167.524 437.098 168.489 434.975Z" fill="#EE6F4D"/>
<path d="M164.822 437.291C164.436 437.098 162.313 435.94 161.541 436.133C161.348 436.133 161.155 435.94 161.155 435.94C161.734 435.168 164.436 437.098 164.822 437.291Z" fill="#EE6F4D"/>
<path d="M181.42 497.914C181.42 498.3 181.034 498.686 180.648 498.686C180.262 498.686 179.876 498.3 179.876 497.914C179.876 497.528 180.262 497.142 180.648 497.142C181.034 497.142 181.42 497.528 181.42 497.914Z" fill="#6297B2"/>
<path d="M196.281 503.32C196.281 503.706 195.895 504.092 195.509 504.092C195.123 504.092 194.737 503.706 194.737 503.32C194.737 502.934 195.123 502.547 195.509 502.547C195.895 502.547 196.281 502.934 196.281 503.32Z" fill="#6297B2"/>
<path d="M209.019 506.409C209.019 506.795 208.633 507.181 208.247 507.181C207.861 507.181 207.475 506.795 207.475 506.409C207.475 506.023 207.861 505.636 208.247 505.636C208.633 505.636 209.019 505.829 209.019 506.409Z" fill="#6297B2"/>
<path d="M189.526 487.488C189.526 487.874 189.14 488.261 188.754 488.261C188.368 488.261 187.982 487.874 187.982 487.488C187.982 487.102 188.368 486.716 188.754 486.716C189.14 486.716 189.526 486.909 189.526 487.488Z" fill="#6297B2"/>
<path d="M191.456 495.79C191.882 495.79 192.228 495.444 192.228 495.018C192.228 494.591 191.882 494.246 191.456 494.246C191.03 494.246 190.684 494.591 190.684 495.018C190.684 495.444 191.03 495.79 191.456 495.79Z" fill="#6297B2"/>
<path d="M205.545 499.458C205.545 499.844 205.159 500.231 204.773 500.231C204.387 500.231 204.001 499.844 204.001 499.458C204.001 499.072 204.387 498.686 204.773 498.686C205.159 498.686 205.545 498.879 205.545 499.458Z" fill="#6297B2"/>
<path d="M207.282 486.33C207.282 486.716 206.896 487.102 206.51 487.102C206.124 487.102 205.738 486.716 205.738 486.33C205.738 485.944 206.124 485.558 206.51 485.558C206.896 485.558 207.282 485.751 207.282 486.33Z" fill="#6297B2"/>
<path d="M197.825 484.206C198.251 484.206 198.597 483.86 198.597 483.434C198.597 483.007 198.251 482.662 197.825 482.662C197.399 482.662 197.053 483.007 197.053 483.434C197.053 483.86 197.399 484.206 197.825 484.206Z" fill="#6297B2"/>
<path d="M173.893 513.552C173.893 513.938 173.507 514.324 173.121 514.324C172.735 514.324 172.349 513.938 172.349 513.552C172.349 513.166 172.735 512.78 173.121 512.78C173.507 512.78 173.893 513.166 173.893 513.552Z" fill="#6297B2"/>
<path d="M161.927 510.077C161.927 510.463 161.541 510.849 161.155 510.849C160.769 510.849 160.383 510.463 160.383 510.077C160.383 509.691 160.769 509.305 161.155 509.305C161.734 509.305 161.927 509.691 161.927 510.077Z" fill="#6297B2"/>
<path d="M154.979 503.899C154.786 504.092 154.593 504.285 154.207 504.285C153.821 504.285 153.435 503.899 153.435 503.513C153.435 503.32 153.435 503.32 153.435 503.32C154.014 503.32 154.4 503.513 154.979 503.899Z" fill="#6297B2"/>
<path d="M177.367 524.75C177.793 524.75 178.139 524.404 178.139 523.978C178.139 523.551 177.793 523.205 177.367 523.205C176.941 523.205 176.595 523.551 176.595 523.978C176.595 524.404 176.941 524.75 177.367 524.75Z" fill="#6297B2"/>
<path d="M156.716 535.368C156.716 535.754 156.33 536.141 155.944 536.141C155.558 536.141 155.172 535.754 155.172 535.368C155.172 534.982 155.558 534.596 155.944 534.596C156.33 534.596 156.716 534.982 156.716 535.368Z" fill="#6297B2"/>
<path d="M164.629 529.19C165.055 529.19 165.401 528.845 165.401 528.418C165.401 527.992 165.055 527.646 164.629 527.646C164.203 527.646 163.857 527.992 163.857 528.418C163.857 528.845 164.203 529.19 164.629 529.19Z" fill="#6297B2"/>
<path d="M151.698 523.205C152.124 523.205 152.47 522.86 152.47 522.433C152.47 522.007 152.124 521.661 151.698 521.661C151.272 521.661 150.926 522.007 150.926 522.433C150.926 522.86 151.272 523.205 151.698 523.205Z" fill="#6297B2"/>
<path d="M163.085 546.373C163.085 546.759 162.699 547.145 162.313 547.145C161.927 547.145 161.541 546.759 161.541 546.373C161.541 545.987 161.927 545.601 162.313 545.601C162.699 545.601 163.085 545.987 163.085 546.373Z" fill="#6297B2"/>
<path d="M170.998 504.285C170.998 504.671 170.612 505.057 170.226 505.057C169.84 505.057 169.454 504.671 169.454 504.285C169.454 503.899 169.84 503.513 170.226 503.513C170.612 503.513 170.998 503.706 170.998 504.285Z" fill="#6297B2"/>
<path d="M179.104 490.77C179.104 491.157 178.718 491.543 178.332 491.543C177.946 491.543 177.56 491.157 177.56 490.77C177.56 490.384 177.946 489.998 178.332 489.998C178.718 489.998 179.104 490.191 179.104 490.77Z" fill="#6297B2"/>
<path d="M188.175 479.38C188.175 479.766 187.789 480.152 187.403 480.152C187.017 480.152 186.631 479.766 186.631 479.38C186.631 478.993 187.017 478.607 187.403 478.607C187.789 478.607 188.175 478.993 188.175 479.38Z" fill="#6297B2"/>
<path d="M169.647 495.79C169.647 496.176 169.261 496.562 168.875 496.562C168.489 496.562 168.103 496.176 168.103 495.79C168.103 495.404 168.489 495.018 168.875 495.018C169.261 495.018 169.647 495.404 169.647 495.79Z" fill="#6297B2"/>
<path d="M179.876 482.662C179.876 483.048 179.49 483.434 179.104 483.434C178.718 483.434 178.332 483.048 178.332 482.662C178.332 482.276 178.718 481.889 179.104 481.889C179.49 481.889 179.876 482.276 179.876 482.662Z" fill="#6297B2"/>
<path d="M163.857 518.765C163.857 519.151 163.471 519.537 163.085 519.537C162.699 519.537 162.313 519.151 162.313 518.765C162.313 518.379 162.699 517.993 163.085 517.993C163.471 517.993 163.857 518.379 163.857 518.765Z" fill="#6297B2"/>
<path d="M153.435 511.814C153.435 512.201 153.049 512.587 152.663 512.587C152.277 512.587 151.891 512.201 151.891 511.814C151.891 511.428 152.277 511.042 152.663 511.042C153.049 511.042 153.435 511.235 153.435 511.814Z" fill="#6297B2"/>
<path d="M182.964 510.077C183.39 510.077 183.736 509.731 183.736 509.305C183.736 508.878 183.39 508.532 182.964 508.532C182.538 508.532 182.192 508.878 182.192 509.305C182.192 509.731 182.538 510.077 182.964 510.077Z" fill="#6297B2"/>
<path d="M200.334 514.324C200.76 514.324 201.106 513.979 201.106 513.552C201.106 513.126 200.76 512.78 200.334 512.78C199.908 512.78 199.562 513.126 199.562 513.552C199.562 513.979 199.908 514.324 200.334 514.324Z" fill="#6297B2"/>
<path d="M200.334 490.77C200.334 491.157 199.948 491.543 199.562 491.543C199.176 491.543 198.79 491.157 198.79 490.77C198.79 490.384 199.176 489.998 199.562 489.998C199.948 489.998 200.334 490.191 200.334 490.77Z" fill="#6297B2"/>
<path d="M210.37 492.315C210.37 492.701 209.984 493.087 209.598 493.087C209.212 493.087 208.826 492.701 208.826 492.315C208.826 491.929 209.212 491.543 209.598 491.543C209.984 491.543 210.37 491.929 210.37 492.315Z" fill="#6297B2"/>
<path d="M190.298 519.537C190.298 519.923 189.912 520.309 189.526 520.309C189.14 520.309 188.754 519.923 188.754 519.537C188.754 519.151 189.14 518.765 189.526 518.765C189.912 518.765 190.298 519.151 190.298 519.537Z" fill="#6297B2"/>
<path d="M182.192 534.596C182.618 534.596 182.964 534.25 182.964 533.824C182.964 533.397 182.618 533.052 182.192 533.052C181.766 533.052 181.42 533.397 181.42 533.824C181.42 534.25 181.766 534.596 182.192 534.596Z" fill="#6297B2"/>
<path d="M169.261 536.913C169.687 536.913 170.033 536.567 170.033 536.141C170.033 535.714 169.687 535.368 169.261 535.368C168.835 535.368 168.489 535.714 168.489 536.141C168.489 536.567 168.835 536.913 169.261 536.913Z" fill="#6297B2"/>
<path d="M204.773 524.75C205.199 524.75 205.545 524.404 205.545 523.978C205.545 523.551 205.199 523.205 204.773 523.205C204.347 523.205 204.001 523.551 204.001 523.978C204.001 524.404 204.347 524.75 204.773 524.75Z" fill="#6297B2"/>
<path d="M193.965 530.156C193.965 530.542 193.579 530.928 193.193 530.928C192.807 530.928 192.421 530.542 192.421 530.156C192.421 529.77 192.807 529.383 193.193 529.383C193.579 529.19 193.965 529.576 193.965 530.156Z" fill="#6297B2"/>
<path d="M176.595 547.918C176.595 548.304 176.209 548.69 175.823 548.69C175.437 548.69 175.051 548.304 175.051 547.918C175.051 547.531 175.437 547.145 175.823 547.145C176.209 547.145 176.595 547.531 176.595 547.918Z" fill="#6297B2"/>
<path d="M188.561 544.635C188.987 544.635 189.333 544.29 189.333 543.863C189.333 543.437 188.987 543.091 188.561 543.091C188.135 543.091 187.789 543.437 187.789 543.863C187.789 544.29 188.135 544.635 188.561 544.635Z" fill="#6297B2"/>
<path d="M201.106 539.809C201.532 539.809 201.878 539.463 201.878 539.037C201.878 538.61 201.532 538.264 201.106 538.264C200.68 538.264 200.334 538.61 200.334 539.037C200.334 539.463 200.68 539.809 201.106 539.809Z" fill="#6297B2"/>
<path d="M196.281 552.937C196.281 553.323 195.895 553.709 195.509 553.709C195.123 553.709 194.737 553.323 194.737 552.937C194.737 552.551 195.123 552.165 195.509 552.165C195.895 552.165 196.281 552.358 196.281 552.937Z" fill="#6297B2"/>
<path d="M195.316 595.025H181.613C180.648 592.515 182.385 590.199 181.999 587.882C181.613 584.214 183.736 586.337 183.736 586.337C184.122 582.476 189.912 581.704 189.912 583.441C189.912 585.951 190.298 587.689 191.07 588.654C192.614 590.778 195.123 590.778 195.509 592.322C195.509 592.515 195.509 592.709 195.702 592.709C196.281 594.639 195.316 595.025 195.316 595.025Z" fill="#174453"/>
<path d="M195.702 592.902C192.807 593.481 186.245 592.709 186.052 591.164C185.859 589.62 189.333 588.847 191.07 588.847C192.614 590.971 195.123 590.971 195.509 592.515C195.702 592.515 195.702 592.709 195.702 592.902Z" fill="#225361"/>
<path d="M138.767 493.087C137.223 491.736 134.907 493.859 134.907 493.859C134.907 493.859 136.258 495.597 135.293 496.369C134.521 497.142 133.556 495.404 131.819 496.176C131.626 496.176 131.626 496.369 131.433 496.369C130.082 497.142 128.924 498.686 127.766 499.844C127.573 500.038 127.38 500.231 127.187 500.424C126.029 501.582 122.748 502.354 122.169 499.072C121.59 495.79 125.45 491.736 129.696 488.261C133.942 484.592 136.837 486.716 136.837 486.716C136.837 486.716 137.802 488.261 137.802 489.226C137.802 490.191 138.767 490.577 139.153 491.543C139.732 492.508 138.767 493.087 138.767 493.087Z" fill="#174453"/>
<path d="M131.626 496.562C130.275 497.335 129.117 498.879 127.959 500.038C126.415 500.424 124.871 500.231 124.678 498.879C124.099 495.404 131.433 490.964 130.854 493.473C130.468 494.439 131.047 495.597 131.626 496.562Z" fill="#225361"/>
<path d="M386.386 589.426C385.614 589.04 385.035 588.268 384.456 587.303C384.456 587.303 383.877 584.407 384.456 581.511C385.035 578.615 383.684 576.105 379.245 575.333C374.999 574.367 372.49 576.491 373.455 584.6C372.876 588.075 372.683 591.936 374.227 595.025H387.351C387.158 595.025 389.281 590.971 386.386 589.426Z" fill="#D9DFE4"/>
<path d="M397.773 545.408C397.773 545.408 397.773 553.516 392.948 561.818C388.123 570.313 381.947 581.897 381.947 581.897C381.947 581.897 377.894 585.565 375.385 579.387C375.385 579.387 377.122 557.764 381.368 549.848C385.614 542.126 397.773 545.408 397.773 545.408Z" fill="#F18969"/>
<path d="M460.305 518.958C460.305 518.958 468.025 550.234 473.043 558.536C473.043 558.536 471.885 562.011 466.481 562.977C466.481 562.977 449.497 539.23 448.532 529.19C447.374 519.151 460.305 518.958 460.305 518.958Z" fill="#F18969"/>
<path d="M463.972 526.294C461.849 531.121 446.023 531.314 446.023 531.314L444.865 529.576L444.479 529.19L441.97 525.715C441.97 525.715 415.529 500.81 410.318 502.933C410.125 502.933 409.932 503.127 409.932 503.127C406.458 505.636 406.072 518.765 401.826 540.967C401.44 543.091 400.475 545.601 399.896 547.145C399.896 547.338 399.703 547.531 399.703 547.724C399.317 548.69 399.124 549.269 399.124 549.269C382.912 555.447 377.701 543.091 377.701 543.091C377.701 543.091 377.894 542.705 378.087 542.126C378.087 541.933 378.28 541.933 378.28 541.739C379.052 540.002 380.403 536.913 380.403 535.175C380.403 533.438 380.403 531.7 380.403 529.963C380.403 529.769 380.403 529.576 380.403 529.576C380.403 524.171 380.403 519.537 380.403 515.483C380.403 513.745 380.403 512.007 380.403 510.463V510.077C380.596 503.127 380.789 498.3 380.982 495.211C380.982 495.018 380.982 494.825 380.982 494.825C381.368 489.612 381.947 489.033 381.947 489.033L378.666 467.603H413.985C413.985 467.603 419.196 472.622 426.144 479.38C426.337 479.573 426.337 479.573 426.53 479.766C429.039 482.276 431.741 484.785 434.443 487.488C434.636 487.681 434.636 487.681 434.829 487.874C435.987 488.84 436.952 489.998 437.917 490.963C438.11 491.157 438.11 491.157 438.303 491.35C441.777 494.825 445.251 498.3 448.146 501.389C448.339 501.582 448.339 501.582 448.532 501.775C452.585 506.022 455.673 509.305 456.638 510.849C459.34 514.903 461.656 520.309 462.814 523.591C462.814 523.784 463.007 523.784 463.007 523.978C463.779 525.329 463.972 526.294 463.972 526.294Z" fill="#8C393F"/>
<path d="M387.351 492.122C386 493.666 383.877 494.825 381.175 495.018C381.175 494.825 381.175 494.632 381.175 494.632C383.684 494.246 385.614 493.28 386.965 491.736C389.474 489.033 389.088 485.365 388.895 485.365H389.281C389.474 485.558 389.86 489.226 387.351 492.122Z" fill="#672C34"/>
<path d="M426.723 479.573C426.53 479.573 426.53 479.573 426.337 479.573C422.477 479.573 418.231 475.518 418.038 475.325L418.424 474.939C418.424 474.939 422.477 478.993 426.337 479.187C426.53 479.38 426.53 479.573 426.723 479.573Z" fill="#672C34"/>
<path d="M399.896 547.338C399.896 547.531 399.703 547.724 399.703 547.918C397.001 548.883 394.685 549.269 392.562 549.269C385.614 549.269 380.789 545.408 378.087 542.512C378.087 542.319 378.28 542.319 378.28 542.126C381.754 545.794 388.895 551.393 399.896 547.338Z" fill="#672C34"/>
<path d="M409.353 495.211C409.932 497.528 410.318 500.231 410.318 502.933C410.125 502.933 409.932 503.127 409.932 503.127C409.932 490.577 402.212 480.731 402.212 480.538L402.598 480.345C402.598 480.345 407.23 486.33 409.353 494.632C410.318 494.053 410.897 493.28 411.09 492.315C412.248 487.874 407.23 480.731 407.23 480.538L407.616 480.345C407.809 480.731 412.827 487.874 411.669 492.315C411.09 493.666 410.511 494.632 409.353 495.211Z" fill="#672C34"/>
<path d="M448.725 501.582C447.374 502.933 446.216 504.092 446.023 504.092L445.83 504.285L445.637 503.899C443.9 499.651 432.899 490.384 432.899 490.191L432.706 489.998L434.443 487.102C434.636 487.295 434.636 487.295 434.829 487.488L433.285 489.998C435.408 490.77 436.952 490.77 437.917 490.77C438.11 490.963 438.11 490.963 438.303 491.157C437.917 491.157 437.531 491.157 437.145 491.157C436.18 491.157 435.022 490.963 433.864 490.577C436.373 492.701 444.093 499.651 445.83 503.513C446.602 502.933 447.374 501.968 448.146 501.196C448.532 501.389 448.532 501.389 448.725 501.582Z" fill="#672C34"/>
<path d="M388.509 530.156C388.123 530.156 386.193 530.542 383.877 530.542C382.719 530.542 381.561 530.349 380.403 530.156C380.403 529.963 380.403 529.769 380.403 529.769C383.298 530.542 387.158 529.963 387.93 529.769L387.158 512.394C386.772 513.359 386 514.71 384.456 515.29C383.684 515.676 382.912 515.869 381.947 515.869C381.368 515.869 380.789 515.869 380.21 515.676V515.483C381.754 515.869 383.105 515.676 384.07 515.29C386 514.324 386.579 512.587 386.965 511.814C385.421 512.008 382.526 511.235 380.403 510.656V510.27C382.912 511.042 386 511.814 387.351 511.428H387.544L388.509 530.156Z" fill="#672C34"/>
<path d="M463.2 523.784C460.691 526.101 455.48 529.769 447.567 529.769C446.795 529.769 445.83 529.769 444.865 529.576L444.479 529.19C454.129 530.349 460.305 525.908 463.007 523.205C463.007 523.398 463.007 523.591 463.2 523.784Z" fill="#672C34"/>
<path d="M420.547 375.897C420.547 375.897 419.582 373.773 415.529 373.773C412.441 373.773 411.09 375.511 411.09 375.511C409.16 380.724 407.23 400.995 406.458 401.768C406.072 402.154 382.719 417.213 382.719 417.213C395.457 417.406 403.37 432.465 403.37 432.465C403.756 427.445 418.038 407.946 418.231 406.208C418.617 402.926 424.6 388.253 420.547 375.897Z" fill="#CE364D"/>
<path d="M380.017 481.696C380.017 481.696 379.824 485.944 381.368 486.137C382.719 486.33 394.492 489.612 407.809 483.82C421.126 478.028 423.442 473.781 419.582 470.499C415.529 467.41 380.017 481.696 380.017 481.696Z" fill="#CE364D"/>
<path d="M374.613 420.109C374.613 420.109 362.454 418.757 355.506 421.653C355.506 421.653 353.576 429.955 363.226 448.489C372.876 467.023 370.56 478.607 381.368 483.048C391.018 486.909 419.196 475.325 419.968 471.464C422.284 461.811 404.914 444.821 403.949 434.975C402.791 425.128 392.755 410.455 374.613 420.109Z" fill="#E84254"/>
<path d="M355.506 421.653C347.014 424.549 337.364 433.623 337.364 438.064C337.364 442.504 345.277 444.242 345.277 444.242L358.401 438.064C358.401 438.064 362.068 435.554 359.752 428.217C357.436 420.881 355.506 421.653 355.506 421.653Z" fill="#CE364D"/>
<path d="M390.439 429.762C387.93 429.762 384.842 428.797 382.719 427.638C381.561 426.866 380.982 426.094 380.789 425.321C380.403 422.426 383.298 420.881 383.298 420.881L383.684 421.653C383.491 421.653 381.175 423.005 381.561 425.128C381.754 425.708 382.14 426.287 383.105 427.059C385.228 428.604 389.088 429.376 391.597 428.99C392.755 428.797 393.527 428.411 393.72 427.831C394.106 427.059 393.72 426.287 393.72 426.287L394.492 425.901C394.492 425.901 395.071 427.059 394.492 428.024C394.106 428.797 393.141 429.376 391.79 429.569C391.404 429.762 391.018 429.762 390.439 429.762Z" fill="#D9DFE4"/>
<path d="M379.631 438.643C377.701 438.643 374.613 437.871 374.227 434.975C374.034 433.43 374.227 432.272 374.227 431.113C374.42 429.569 374.613 428.217 373.648 426.673C372.104 424.163 369.788 423.97 369.595 423.97V423.198C369.788 423.198 372.297 423.391 374.227 426.287C375.385 428.024 375.192 429.569 374.999 431.306C374.806 432.465 374.806 433.623 374.999 434.975C375.385 438.257 379.631 437.871 379.824 437.871V438.643C379.824 438.643 379.824 438.643 379.631 438.643Z" fill="#D9DFE4"/>
<path d="M382.333 423.584C382.333 423.584 388.702 419.336 387.158 414.896C385.614 410.455 364.963 410.649 359.559 416.054C354.155 421.46 371.139 425.128 371.139 425.128C372.49 422.619 380.789 422.232 382.333 423.584Z" fill="#CE364D"/>
<path d="M370.753 422.812C367.665 421.846 365.928 419.723 366.507 417.213C367.086 414.703 380.21 414.703 382.719 416.634C385.228 418.757 381.754 426.48 370.753 422.812Z" fill="#A12F45"/>
<path d="M369.209 416.054C369.209 416.054 371.911 420.495 370.753 422.812C370.753 422.812 380.017 425.901 380.017 420.881C380.017 420.881 378.28 417.213 378.859 414.703L369.209 416.054Z" fill="#EE6F4D"/>
<path d="M366.314 412.193C366.314 412.193 361.682 405.243 362.261 398.485C362.454 395.203 364.191 393.852 364.191 393.852C364.191 393.852 362.84 391.921 364.384 389.025C364.384 389.025 366.507 391.342 374.034 390.57C381.368 389.798 381.947 394.817 381.947 394.817C387.158 395.59 383.684 410.649 380.017 412H366.314V412.193Z" fill="#F8B77A"/>
<path d="M364.384 405.822C364.384 405.822 361.682 403.312 361.489 406.208C361.103 409.683 364.384 411.035 364.963 409.876C365.349 408.718 364.384 405.822 364.384 405.822Z" fill="#F18969"/>
<path d="M382.526 406.015C382.526 406.015 385.228 403.505 385.421 406.401C385.807 409.876 382.526 411.228 381.947 410.069C381.368 408.911 382.526 406.015 382.526 406.015Z" fill="#F18969"/>
<path d="M373.069 417.985C367.279 417.985 363.998 414.317 363.998 403.505C363.998 397.906 366.893 394.431 373.455 394.431C380.017 394.431 382.719 397.906 382.719 403.505C382.719 415.282 379.245 417.985 373.069 417.985Z" fill="#F18969"/>
<path d="M380.789 407.366C380.982 407.946 380.403 408.525 379.631 408.525C378.859 408.718 378.28 408.332 378.087 407.753C377.894 407.173 378.473 406.594 379.245 406.594C380.017 406.401 380.789 406.787 380.789 407.366Z" fill="#DC624E"/>
<path d="M369.016 407.753C369.016 408.332 368.437 408.718 367.665 408.718C366.893 408.718 366.314 408.139 366.314 407.56C366.314 406.98 366.893 406.594 367.665 406.594C368.437 406.594 369.016 407.173 369.016 407.753Z" fill="#DC624E"/>
<path d="M378.28 401.575H378.087C377.122 400.802 375.771 401.188 375.771 401.188C375.578 401.188 375.385 401.188 375.385 400.995C375.385 400.802 375.385 400.609 375.578 400.609C375.578 400.609 377.315 400.416 378.28 401.188C378.666 401.188 378.666 401.381 378.28 401.575C378.473 401.575 378.473 401.575 378.28 401.575Z" fill="#F8B77A"/>
<path d="M367.279 401.575C367.086 401.575 367.086 401.575 367.279 401.575C366.893 401.381 367.086 401.188 367.086 400.995C368.244 400.223 369.788 400.416 369.788 400.416C369.981 400.416 369.981 400.609 369.981 400.802C369.981 400.995 369.788 400.995 369.595 400.995C369.595 400.995 368.244 400.802 367.279 401.575Z" fill="#F8B77A"/>
<path d="M377.701 404.664C377.701 405.436 377.315 405.822 376.929 405.822C376.543 405.822 376.157 405.243 376.157 404.664C376.157 403.891 376.543 403.505 376.929 403.505C377.315 403.505 377.701 404.084 377.701 404.664Z" fill="#1D4C55"/>
<path d="M369.981 404.664C369.981 405.436 369.595 405.822 369.209 405.822C368.823 405.822 368.437 405.243 368.437 404.664C368.437 403.891 368.823 403.505 369.209 403.505C369.595 403.505 369.981 404.084 369.981 404.664Z" fill="#1D4C55"/>
<path d="M365.928 395.59C365.928 395.59 372.104 397.713 380.982 397.134C380.982 397.134 382.912 399.451 382.719 407.366C382.719 407.366 387.93 393.08 372.683 393.08C357.629 393.08 364.384 407.173 364.384 407.173C364.384 407.173 363.033 398.292 365.928 395.59Z" fill="#F8B77A"/>
<path d="M373.455 408.332L373.069 407.946L374.227 406.787C373.069 405.243 373.069 401.768 373.069 401.575H373.648C373.648 401.575 373.648 405.436 374.806 406.594L374.999 406.787L373.455 408.332Z" fill="#DC624E"/>
<path d="M369.595 410.262C369.595 410.262 375.385 410.455 378.087 409.683C378.087 409.683 378.666 413.738 374.227 413.931C369.595 414.124 369.595 410.262 369.595 410.262Z" fill="#1D4C55"/>
<path d="M394.106 425.321C395.264 425.128 395.071 427.831 394.106 427.059C393.141 426.094 392.948 425.515 394.106 425.321Z" fill="#D9DFE4"/>
<path d="M380.982 438.45C380.789 439.415 378.087 438.45 379.245 437.871C380.403 437.291 381.175 437.485 380.982 438.45Z" fill="#D9DFE4"/>
<path d="M369.209 444.242C369.209 444.242 367.472 448.489 367.665 450.806C367.858 453.123 368.63 452.93 368.63 452.93C368.63 452.93 367.279 453.509 367.086 454.86C366.893 456.212 370.56 457.177 370.753 457.177C370.946 457.177 373.648 456.212 373.648 456.212L374.227 448.296L371.911 446.945L369.209 444.242Z" fill="#EE6F4D"/>
<path d="M370.56 443.663C370.56 443.663 373.648 445.593 374.999 446.752C376.157 447.91 375.578 456.791 374.999 457.177C374.42 457.563 370.367 458.529 369.788 457.949C369.016 457.563 370.174 454.86 370.174 454.86C370.174 454.86 372.104 454.474 371.911 455.247C371.525 456.019 371.911 456.598 371.911 456.598L372.683 456.212C372.683 456.212 372.297 454.281 372.683 452.737C373.069 451.192 369.788 449.648 369.402 447.138C368.823 444.242 370.56 443.663 370.56 443.663Z" fill="#F18969"/>
<path d="M337.943 439.222C336.978 434.975 341.224 433.623 347.207 434.202C354.155 434.975 368.437 436.712 371.525 444.049C371.525 444.049 372.49 446.945 369.981 448.296C362.647 452.157 339.873 447.138 337.943 439.222Z" fill="#CE364D"/>
<path d="M359.752 436.519C359.752 436.519 351.453 433.237 347.4 432.851C343.154 432.465 352.997 435.94 359.752 436.519Z" fill="#A12F45"/>
<path d="M422.091 364.892C421.512 365.664 420.354 368.174 420.354 368.174C419.968 370.491 419.582 371.649 418.81 372.615C418.038 373.58 418.424 375.511 418.424 375.511C418.424 375.511 415.336 377.055 412.634 375.125C412.634 375.125 412.827 373.387 412.634 372.808C412.055 371.843 410.318 371.263 409.739 369.14C409.16 367.016 407.423 364.699 407.423 364.699C407.423 364.699 408.002 363.541 408.967 364.313C409.932 364.892 410.511 366.63 411.09 366.823C411.283 366.823 411.283 366.823 411.476 366.823C411.862 366.823 412.248 366.823 412.441 366.63C413.213 365.664 413.599 362.769 413.406 361.61C413.406 359.873 413.406 357.363 414.564 357.942C415.722 358.328 414.564 359.293 415.529 363.155H415.915C415.915 363.348 416.687 360.838 416.88 358.328C417.073 356.59 418.231 357.17 418.424 357.749C418.617 358.328 418.231 359.873 418.231 361.224C418.231 361.996 418.038 362.962 418.038 363.348L418.617 363.541C420.354 360.645 419.775 359.293 420.74 359.293C421.705 359.293 421.319 361.803 420.933 362.575C420.74 362.962 420.547 363.927 420.354 364.699C422.091 362.769 421.898 361.61 422.863 361.803C423.442 362.189 422.67 364.313 422.091 364.892Z" fill="#F18969"/>
<path d="M414.178 369.526C413.599 367.981 411.476 367.209 411.09 367.016C411.476 367.016 411.862 367.016 412.055 366.823C414.371 367.788 414.178 369.526 414.178 369.526Z" fill="#EE6F4D"/>
<path d="M376.35 582.862C376.35 582.862 375.192 580.545 376.157 579.58C377.315 578.615 378.473 580.352 380.403 579.966C382.333 579.58 382.719 578.229 383.105 579.966C383.684 581.704 383.105 587.11 376.35 582.862Z" fill="#D9DFE4"/>
<path d="M383.298 582.669C383.298 582.669 378.28 584.407 375.771 582.669L376.35 584.793C376.35 584.793 381.754 585.372 382.526 584.021L383.298 582.669Z" fill="#ADBEC4"/>
<path d="M383.298 585.372C383.298 585.372 378.859 584.793 376.543 585.758V586.724C376.543 586.724 382.333 585.372 384.263 586.724L383.298 585.372Z" fill="#ADBEC4"/>
<path d="M376.35 588.847C376.35 588.847 377.315 586.724 380.017 586.724C382.719 586.53 384.649 588.075 384.649 588.075C384.649 588.075 380.21 586.337 376.35 588.847Z" fill="#ADBEC4"/>
<path d="M492.536 560.467C483.851 571.471 472.078 573.595 472.078 573.595C468.604 570.892 468.604 567.803 468.604 567.803C468.604 567.803 465.323 564.907 464.937 563.556C464.551 562.204 467.832 558.15 469.762 558.536C471.113 558.729 471.885 559.888 472.271 560.467C470.727 556.992 471.885 555.833 474.201 556.026C476.517 556.412 474.394 556.799 476.131 558.729C476.324 558.922 476.324 558.922 476.517 559.115C476.903 559.308 477.289 559.501 477.675 559.501C478.061 559.501 478.447 559.501 478.833 559.501C479.026 559.501 479.219 559.501 479.605 559.501C479.991 559.501 480.57 559.308 480.956 559.115C481.728 558.922 482.5 558.536 483.079 558.15C486.167 556.605 487.325 556.026 489.641 556.605C491.957 557.185 491.957 558.729 491.957 558.729L492.536 560.467Z" fill="#D9DFE4"/>
<path d="M492.536 560.467C483.851 571.471 472.078 573.595 472.078 573.595C478.061 571.085 483.658 567.803 487.325 563.942C491.185 560.081 492.536 560.467 492.536 560.467Z" fill="#ADBEC4"/>
<path d="M476.324 559.308C476.71 559.501 477.096 559.694 477.482 559.694C475.166 560.081 474.973 562.011 474.973 562.011L474.008 561.625C474.201 559.501 476.131 559.308 476.324 559.308Z" fill="#ADBEC4"/>
<path d="M477.868 562.397H476.903C476.517 561.046 477.096 560.274 477.482 559.694C477.868 559.694 478.254 559.694 478.64 559.694C477.482 561.046 477.868 562.397 477.868 562.397Z" fill="#ADBEC4"/>
<path d="M480.377 561.818L479.412 562.011C479.026 561.046 479.219 560.274 479.412 559.694C479.798 559.694 480.377 559.501 480.763 559.308C479.991 560.66 480.377 561.818 480.377 561.818Z" fill="#ADBEC4"/>
<path d="M383.491 459.108C383.491 459.108 385.807 470.692 381.175 475.325C376.736 479.959 379.631 476.097 380.982 470.112C382.333 464.127 381.368 457.949 383.491 459.108Z" fill="#CE364D"/>
<path d="M404.335 453.895C404.335 453.895 411.476 456.212 415.143 462.39C415.143 462.39 410.125 452.157 404.335 453.895Z" fill="#CE364D"/>
<path d="M219.055 367.981C220.02 367.981 222.722 369.14 222.722 369.14C224.652 370.298 225.81 371.07 227.161 371.07C228.512 371.263 229.091 373.387 229.091 373.387C229.091 373.387 234.302 374.545 234.688 371.263C234.688 371.263 231.793 367.209 231.6 366.823C231.214 365.665 231.986 364.12 230.828 362.382C229.67 360.645 229.091 357.749 229.091 357.749C229.091 357.749 227.933 357.363 227.74 358.521C227.547 359.68 228.512 361.224 228.319 361.61C228.319 361.803 228.319 361.803 228.126 361.803C227.933 362.189 227.547 362.382 227.161 362.382C225.81 362.382 223.494 360.645 222.529 359.68C221.178 358.521 219.248 356.977 218.862 357.942C218.476 359.1 219.827 358.907 222.336 362.189L222.143 362.575C222.336 362.769 219.827 361.61 217.704 360.066C216.353 359.1 215.967 360.259 216.16 360.838C216.353 361.417 217.897 362.189 219.055 362.962C219.634 363.541 220.406 363.927 220.792 364.313L220.599 364.892C217.125 364.12 216.546 362.962 215.967 363.541C215.195 364.313 217.318 365.665 218.476 365.858C218.862 366.051 219.827 366.437 220.599 366.823C217.897 366.823 217.125 365.858 216.739 366.63C216.16 367.209 218.09 367.981 219.055 367.981Z" fill="#F18969"/>
<path d="M227.933 365.471C227.161 363.927 227.933 361.996 228.126 361.61C227.933 361.996 227.547 362.189 227.161 362.189C226.389 364.506 227.933 365.471 227.933 365.471Z" fill="#EE6F4D"/>
<path d="M374.42 367.981C373.455 367.981 370.753 369.14 370.753 369.14C368.823 370.298 367.665 371.07 366.314 371.07C364.963 371.263 364.384 373.387 364.384 373.387C364.384 373.387 359.173 374.545 358.787 371.263C358.787 371.263 361.682 367.209 361.875 366.823C362.261 365.665 361.489 364.12 362.647 362.382C363.805 360.645 364.384 357.749 364.384 357.749C364.384 357.749 365.542 357.363 365.735 358.521C365.928 359.68 364.963 361.224 365.156 361.61C365.156 361.803 365.156 361.803 365.349 361.803C365.542 362.189 365.928 362.382 366.314 362.382C367.665 362.382 369.981 360.645 370.946 359.68C372.297 358.521 374.227 356.977 374.613 357.942C374.999 359.1 373.648 358.907 371.139 362.189L371.332 362.575C371.139 362.769 373.648 361.61 375.771 360.066C377.122 359.1 377.508 360.259 377.315 360.838C377.122 361.417 375.578 362.189 374.42 362.962C373.841 363.541 373.069 363.927 372.683 364.313L372.876 364.892C376.35 364.12 376.929 362.962 377.508 363.541C378.28 364.313 376.157 365.665 374.999 365.858C374.613 366.051 373.648 366.437 372.876 366.823C375.578 366.823 376.35 365.858 376.736 366.63C377.315 367.209 375.192 367.981 374.42 367.981Z" fill="#F18969"/>
<path d="M365.542 365.471C366.314 363.927 365.542 361.996 365.349 361.61C365.542 361.996 365.928 362.189 366.314 362.189C367.086 364.506 365.542 365.471 365.542 365.471Z" fill="#EE6F4D"/>
<path d="M327.907 521.082L317.678 461.038L297.413 463.162L277.148 461.038L266.919 521.082L262.094 579.387C262.094 579.387 263.638 584.214 273.674 580.932C273.674 580.932 281.201 526.873 282.359 525.715C283.517 524.557 295.483 489.226 295.483 489.226H299.15C299.15 489.226 311.116 524.557 312.274 525.715C313.432 526.873 320.959 580.932 320.959 580.932C330.995 584.214 332.539 579.387 332.539 579.387L327.907 521.082Z" fill="#0F3944"/>
<path d="M291.237 402.926C292.588 404.084 298.764 406.208 302.238 402.926L304.554 405.05C304.554 405.05 302.045 410.842 297.413 411.035C292.974 411.228 289.693 405.822 289.693 405.822L291.237 402.926Z" fill="#10476B"/>
<path d="M308.993 402.154C316.52 399.065 340.838 390.763 340.838 390.763C340.838 390.763 357.243 371.07 360.524 368.174C360.524 368.174 364.191 368.754 365.156 373.194C365.156 373.194 354.541 394.817 348.944 400.995C343.154 407.173 314.204 420.688 314.204 420.688L308.993 402.154Z" fill="#10476B"/>
<path d="M282.552 401.768C284.868 400.416 296.062 407.56 296.062 407.56C296.062 407.56 310.73 400.03 314.204 401.575C314.204 401.575 317.292 405.629 318.643 415.668C319.801 425.901 319.994 467.989 319.994 467.989C319.994 467.989 310.151 471.271 296.834 471.271C281.587 471.271 273.481 467.023 273.481 467.023C273.481 467.023 270.586 408.911 282.552 401.768Z" fill="#F8B77A"/>
<path d="M291.816 400.609C291.816 400.609 293.36 405.436 291.816 407.366C291.816 407.366 293.553 410.842 296.448 410.842C299.922 411.035 301.08 407.366 301.08 407.366C301.08 407.366 299.15 402.733 301.08 400.995L291.816 400.609Z" fill="#EE6F4D"/>
<path d="M287.763 395.783C287.763 395.783 284.289 389.411 285.061 382.847C285.833 376.09 296.255 374.545 303.396 377.828C303.396 377.828 301.273 375.897 302.045 375.318C302.817 374.739 304.361 378.214 304.361 378.214C304.361 378.214 306.677 377.635 306.87 378.214C307.256 378.793 304.554 379.179 304.554 379.179C304.554 379.179 309.186 381.689 304.94 394.624L287.763 395.783Z" fill="#8C393F"/>
<path d="M287.184 391.921C287.184 391.921 284.675 389.411 284.289 392.307C283.903 395.59 286.991 396.941 287.57 395.976C288.342 394.817 287.184 391.921 287.184 391.921Z" fill="#F18969"/>
<path d="M304.94 392.114C304.94 392.114 307.449 389.605 307.835 392.501C308.221 395.783 305.133 397.134 304.554 396.169C303.975 395.01 304.94 392.114 304.94 392.114Z" fill="#F18969"/>
<path d="M295.869 403.698C290.272 403.698 286.991 400.223 286.991 389.605C286.991 384.199 289.886 380.724 296.255 380.724C302.624 380.724 305.326 384.006 305.326 389.605C305.133 400.995 301.659 403.698 295.869 403.698Z" fill="#F18969"/>
<path d="M303.396 393.466C303.589 394.045 303.01 394.624 302.238 394.624C301.466 394.817 300.887 394.431 300.694 393.852C300.501 393.273 301.08 392.694 301.852 392.694C302.624 392.5 303.203 392.887 303.396 393.466Z" fill="#DC624E"/>
<path d="M291.816 393.659C291.816 394.238 291.237 394.624 290.465 394.624C289.693 394.624 289.114 394.045 289.307 393.466C289.307 392.887 289.886 392.5 290.658 392.5C291.237 392.694 291.816 393.273 291.816 393.659Z" fill="#DC624E"/>
<path d="M300.694 387.867H300.501C299.729 387.095 298.378 387.095 298.378 387.095C298.185 387.095 298.185 386.902 297.992 386.902C297.992 386.709 298.185 386.709 298.185 386.709C298.185 386.709 299.922 386.709 300.694 387.674C300.887 387.867 300.887 387.867 300.694 388.06C300.887 387.867 300.887 387.867 300.694 387.867Z" fill="#8C393F"/>
<path d="M290.079 387.867H289.886C289.693 387.674 289.693 387.674 289.886 387.481C290.851 386.515 292.395 386.515 292.395 386.515C292.588 386.515 292.588 386.709 292.588 386.709C292.588 386.902 292.395 386.902 292.202 386.902C292.202 386.902 290.851 386.902 290.079 387.674C290.272 387.867 290.272 387.867 290.079 387.867Z" fill="#8C393F"/>
<path d="M300.308 390.763C300.308 391.342 299.922 391.921 299.536 391.921C299.15 391.921 298.764 391.342 298.764 390.763C298.764 390.184 299.15 389.605 299.536 389.605C299.922 389.605 300.308 390.184 300.308 390.763Z" fill="#1D4C55"/>
<path d="M292.781 390.763C292.781 391.342 292.395 391.921 292.009 391.921C291.623 391.921 291.237 391.342 291.237 390.763C291.237 390.184 291.623 389.605 292.009 389.605C292.395 389.605 292.781 390.184 292.781 390.763Z" fill="#1D4C55"/>
<path d="M292.781 397.906C292.781 397.906 297.799 398.486 300.308 397.327C300.308 397.327 298.764 400.609 296.062 400.223C293.36 400.03 292.781 397.906 292.781 397.906Z" fill="#1D4C55"/>
<path d="M304.554 393.273C304.554 393.273 304.361 387.481 302.045 382.847C302.045 382.847 297.799 384.778 296.834 384.199C295.869 383.813 297.799 382.847 297.799 382.847C297.799 382.847 290.851 384.971 290.465 384.585C290.079 384.199 292.781 382.847 292.781 382.847L288.535 384.199C288.535 384.199 287.184 389.411 287.763 393.273C287.763 393.273 285.833 390.184 285.64 388.06C285.447 385.936 286.412 379.951 292.974 379.372C299.536 378.986 303.203 380.337 304.747 383.233C306.291 386.129 306.098 389.605 304.554 393.273Z" fill="#8C393F"/>
<path d="M296.834 396.362C296.255 396.362 295.676 396.169 295.483 396.169L295.676 395.59C296.255 395.783 297.22 395.783 297.413 395.59C297.413 395.59 297.413 395.396 297.413 395.01C296.641 393.273 296.448 389.218 296.448 389.025H297.027C297.027 389.025 297.22 393.273 297.992 394.817C298.185 395.203 298.185 395.59 297.992 395.976C297.606 396.169 297.22 396.362 296.834 396.362Z" fill="#DC624E"/>
<path d="M303.01 404.471C303.01 404.471 313.239 434.975 314.204 459.687C314.204 459.687 317.871 460.652 322.117 455.247C326.363 449.841 323.854 406.787 315.748 399.644C315.748 399.644 312.274 398.872 303.01 404.471Z" fill="#115F9B"/>
<path d="M304.747 409.683C304.747 409.683 306.484 405.629 305.712 402.733C304.94 399.837 302.045 402.733 302.045 402.733C302.045 402.733 303.203 407.366 304.747 409.683Z" fill="#10476B"/>
<path d="M284.289 402.154C276.762 399.065 252.444 390.763 252.444 390.763C252.444 390.763 236.039 370.491 232.758 367.595C232.758 367.595 228.705 369.912 228.319 374.545C228.319 374.545 238.741 394.817 244.338 400.995C250.128 407.173 279.078 420.688 279.078 420.688L284.289 402.154Z" fill="#10476B"/>
<path d="M290.079 404.471C290.079 404.471 279.85 434.975 278.885 459.687C278.885 459.687 275.218 460.652 270.972 455.247C266.726 449.841 269.235 406.787 277.341 399.644C277.341 399.644 281.008 398.872 290.079 404.471Z" fill="#115F9B"/>
<path d="M288.535 409.683C288.535 409.683 286.798 405.629 287.57 402.733C288.342 399.837 291.237 402.733 291.237 402.733C291.237 402.733 289.886 407.366 288.535 409.683Z" fill="#10476B"/>
<path d="M341.803 595.025H321.538C320.187 587.303 322.31 579.58 322.31 579.58L331.574 578.036C332.346 582.862 333.504 584.793 334.855 585.758C335.82 586.53 337.171 586.724 338.715 587.303C340.452 587.882 341.417 589.04 341.803 590.006C342.768 592.516 341.803 595.025 341.803 595.025Z" fill="#672C34"/>
<path d="M341.803 590.199C336.785 590.778 325.784 591.743 326.556 589.04C327.135 586.724 331.767 586.144 335.048 585.951C336.013 586.724 337.364 586.917 338.908 587.496C340.452 587.882 341.417 589.04 341.803 590.199Z" fill="#8C393F"/>
<path d="M273.867 595.025H253.602C253.602 595.025 253.023 593.288 253.216 591.357C253.409 589.813 254.374 588.075 256.69 587.303C258.427 586.724 259.778 586.53 260.936 585.565C262.094 584.407 263.059 582.476 263.831 578.036L273.095 579.58C272.902 579.58 275.218 587.303 273.867 595.025Z" fill="#672C34"/>
<path d="M253.216 591.357C253.409 589.813 254.374 588.075 256.69 587.303C258.427 586.724 259.778 586.53 260.936 585.565C263.445 586.337 267.112 587.689 268.27 589.813C269.621 592.709 257.848 592.322 253.216 591.357Z" fill="#8C393F"/>
<path d="M419.582 593.674C419.582 594.446 419.582 595.025 419.582 595.025H394.878C394.878 594.639 394.878 594.06 394.878 593.674C395.071 587.496 397.194 582.09 397.194 582.09L403.37 579.58C403.949 582.669 405.3 584.6 407.037 585.758C407.423 586.144 408.002 586.337 408.388 586.53C408.581 586.724 408.774 586.724 409.16 586.917C409.739 587.11 410.125 587.303 410.704 587.496C412.827 588.075 415.143 588.268 416.687 588.461C419.196 589.04 419.582 591.936 419.582 593.674Z" fill="#174453"/>
<path d="M419.582 593.674C419.582 594.446 419.582 595.025 419.582 595.025H394.878C394.878 594.639 394.878 594.06 394.878 593.674H419.582Z" fill="#245967"/>
<path d="M408.388 586.724L404.914 587.689L404.142 586.53L406.844 585.758C407.423 586.144 408.002 586.53 408.388 586.724Z" fill="#245967"/>
<path d="M410.704 587.689L408.388 589.233L407.037 588.654L409.16 587.11C409.739 587.303 410.125 587.496 410.704 587.689Z" fill="#245967"/>
<path d="M325.398 593.674C325.398 594.446 325.205 595.025 325.205 595.025H308.8C308.607 594.639 308.414 594.06 308.414 593.674C306.87 586.144 317.678 576.877 317.678 576.877L321.152 581.318C321.152 581.318 320.766 588.461 323.661 589.813C325.205 590.778 325.398 592.515 325.398 593.674Z" fill="#174453"/>
<path d="M308.221 593.674H325.398C325.398 594.446 325.205 595.025 325.205 595.025H308.8C308.414 594.639 308.221 594.253 308.221 593.674Z" fill="#245967"/>
<path d="M322.696 589.426C322.696 589.426 315.748 587.882 312.66 589.813V588.654C312.66 588.654 318.45 585.951 322.696 589.426Z" fill="#245967"/>
<path d="M321.345 587.689C321.345 587.689 316.906 585.758 312.66 587.689L313.239 586.53C313.239 586.53 318.257 584.793 321.345 587.689Z" fill="#245967"/>
<path d="M412.248 526.68C412.248 533.052 406.458 584.6 406.458 584.6C400.668 585.179 395.843 584.021 395.843 584.021C394.299 557.957 394.106 535.368 394.106 535.368L365.928 515.097C365.928 515.097 365.735 515.483 365.542 516.448C364.191 522.433 358.208 547.145 355.699 552.937C352.997 559.501 322.31 586.724 322.31 586.724C316.713 585.951 311.888 582.09 311.888 582.09C322.889 564.714 337.75 547.145 337.75 547.145C338.908 540.774 339.68 526.873 340.259 516.448C340.259 516.255 340.259 516.062 340.259 515.869C340.645 508.725 340.838 503.513 340.838 503.513L335.627 493.473L368.437 481.889L375.771 490.963C375.771 490.963 377.508 492.508 380.017 494.825C380.21 495.018 380.21 495.018 380.403 495.211C390.246 503.899 412.248 523.977 412.248 526.68Z" fill="#8BBDDB"/>
<path d="M340.259 516.255C340.259 516.062 340.259 515.869 340.259 515.676C347.207 512.008 346.049 506.409 346.049 506.216H346.435C346.435 506.409 347.786 512.587 340.259 516.255Z" fill="#6297B2"/>
<path d="M365.349 511.235C365.542 512.394 365.735 513.745 365.928 515.29C365.928 515.29 365.735 515.676 365.542 516.641C365.156 506.795 361.103 501.003 360.91 501.003L361.296 500.81C361.296 500.81 363.998 504.478 365.349 511.042C370.367 506.795 365.542 498.107 365.349 498.107L365.735 497.914C365.735 497.721 370.946 506.795 365.349 511.235Z" fill="#6297B2"/>
<path d="M380.596 495.018C380.403 495.018 380.403 495.018 380.596 495.018C380.403 495.018 380.21 495.211 379.824 495.211C377.315 495.211 373.455 491.929 373.262 491.736L373.455 491.35C374.806 492.508 378.473 495.018 380.21 494.632C380.21 494.825 380.403 494.825 380.596 495.018Z" fill="#6297B2"/>
<path d="M337.943 439.222C337.943 439.222 347.979 437.678 352.997 440.767C358.015 443.856 364.577 451.771 364.577 451.771C364.577 451.771 356.857 452.737 355.892 457.756C355.892 457.756 350.102 445.014 337.943 439.222Z" fill="#ADBEC4"/>
<path d="M323.082 444.242C318.836 446.366 311.888 454.667 311.502 459.687C311.116 464.514 314.976 469.147 317.485 473.008C325.398 484.978 333.89 495.597 337.557 509.691C337.557 509.691 355.892 516.641 377.315 492.122C377.315 492.122 365.156 476.484 361.103 463.162C359.366 457.756 357.629 451.964 354.348 447.331C350.681 442.118 344.505 439.029 338.136 439.415C332.539 439.608 327.135 442.118 323.082 444.242Z" fill="#D9DFE4"/>
<path d="M321.152 439.222C321.152 439.222 323.854 443.663 322.696 445.979C322.696 445.979 331.96 449.068 331.96 444.049C331.96 444.049 330.223 440.381 330.802 437.871L321.152 439.222Z" fill="#EE6F4D"/>
<path d="M341.803 469.533C341.803 469.533 336.592 470.885 335.434 472.622C334.083 474.36 332.925 478.221 332.925 478.221H341.803L343.54 475.325L345.47 471.464L341.803 469.533Z" fill="#EE6F4D"/>
<path d="M333.311 434.396C333.311 434.396 336.978 432.851 334.662 422.619C333.118 415.668 330.802 414.703 329.451 414.703C329.451 414.703 327.714 412.193 321.538 413.351C317.292 414.124 314.011 416.634 312.467 421.074C310.923 425.708 314.011 435.94 318.064 436.905L333.311 434.396Z" fill="#174453"/>
<path d="M334.083 427.252C334.083 427.252 336.399 424.163 337.171 427.252C338.136 430.727 335.048 432.658 334.276 431.693C333.504 430.534 334.083 427.252 334.083 427.252Z" fill="#F18969"/>
<path d="M315.169 430.534C315.169 430.534 312.081 428.411 312.274 431.5C312.467 435.168 316.134 435.94 316.52 434.782C316.906 433.43 315.169 430.534 315.169 430.534Z" fill="#F18969"/>
<path d="M327.135 441.539C333.118 440.574 336.013 436.326 334.083 424.935C333.118 419.143 329.258 416.054 322.503 417.02C315.748 418.178 313.432 422.039 314.59 428.024C316.52 440.187 320.766 442.504 327.135 441.539Z" fill="#F18969"/>
<path d="M317.099 431.693C317.099 432.272 317.678 432.851 318.45 432.851C319.222 432.851 319.801 432.465 319.801 431.693C319.801 431.113 319.222 430.534 318.45 430.534C317.871 430.534 317.099 431.113 317.099 431.693Z" fill="#DC624E"/>
<path d="M329.644 430.148C329.837 430.727 330.609 431.113 331.188 430.92C331.96 430.727 332.539 430.148 332.346 429.569C332.153 428.99 331.381 428.604 330.802 428.797C330.03 428.797 329.451 429.569 329.644 430.148Z" fill="#DC624E"/>
<path d="M318.836 425.321C318.45 425.128 318.45 424.935 318.643 424.935C319.415 423.777 321.152 423.584 321.345 423.584C321.538 423.584 321.731 423.584 321.731 423.777C321.731 423.97 321.731 424.163 321.538 424.163C321.538 424.163 319.994 424.356 319.415 425.321C319.029 425.321 319.029 425.321 318.836 425.321Z" fill="#1D4C55"/>
<path d="M330.223 423.584C329.065 422.812 327.521 423.005 327.521 423.005C327.328 423.005 327.135 423.005 327.135 422.812C327.135 422.619 327.135 422.426 327.328 422.426C327.328 422.426 329.065 422.039 330.223 423.005C330.416 423.198 330.416 423.198 330.223 423.391C330.416 423.584 330.223 423.584 330.223 423.584Z" fill="#1D4C55"/>
<path d="M319.994 428.411C320.187 429.183 320.573 429.569 320.959 429.569C321.345 429.569 321.538 428.797 321.538 428.217C321.345 427.445 320.959 427.059 320.573 427.059C319.994 427.059 319.801 427.638 319.994 428.411Z" fill="#1D4C55"/>
<path d="M328.1 427.059C328.293 427.831 328.679 428.217 329.065 428.217C329.451 428.217 329.644 427.445 329.644 426.866C329.451 426.094 329.065 425.708 328.679 425.708C328.1 425.708 327.907 426.287 328.1 427.059Z" fill="#1D4C55"/>
<path d="M330.223 433.623C330.223 433.623 325.012 434.975 322.117 434.396C322.117 434.396 324.047 436.905 326.942 436.133C329.837 435.554 330.223 433.623 330.223 433.623Z" fill="#1D4C55"/>
<path d="M330.609 419.723C330.609 419.723 323.854 424.549 315.169 424.742L315.362 432.079C315.362 432.079 307.449 417.985 323.082 415.475C338.908 412.965 334.276 428.797 334.276 428.797C334.276 428.797 333.89 421.846 330.609 419.723Z" fill="#0F3944"/>
<path d="M325.012 431.693V431.113C325.012 431.113 325.977 431.113 326.17 430.534C326.363 430.341 325.784 429.569 325.591 428.99C325.205 428.024 324.433 427.059 324.24 425.901L324.819 425.708C325.012 426.866 325.591 427.831 326.17 428.604C326.749 429.569 327.135 430.148 326.749 430.727C326.363 431.5 325.012 431.693 325.012 431.693Z" fill="#DC624E"/>
<path d="M334.276 419.723C322.889 414.896 311.888 424.935 311.888 424.935C311.888 424.935 310.537 416.827 312.853 415.089C313.432 414.51 314.011 414.124 314.783 413.738C319.801 410.649 326.556 410.649 329.644 411.807C330.223 412 330.802 412.193 330.995 412.579C332.925 414.124 334.276 419.723 334.276 419.723Z" fill="#CE364D"/>
<path d="M332.925 417.792C332.925 417.792 323.275 416.054 314.204 421.653C314.204 421.653 313.625 416.441 314.783 413.545C319.801 410.456 326.556 410.456 329.644 411.614C331.381 413.545 332.925 417.792 332.925 417.792Z" fill="#D9DFE4"/>
<path d="M312.853 423.777C312.853 423.777 314.397 417.599 316.52 415.861C319.994 412.965 329.644 412 334.662 413.738C339.68 415.475 334.662 420.688 334.662 420.688C334.662 420.688 326.556 415.282 312.853 423.777Z" fill="#A12F45"/>
<path d="M327.714 465.093C327.714 465.093 331.574 470.885 338.329 474.36C338.329 474.36 346.821 467.41 357.629 467.989C357.629 467.989 348.558 483.627 340.838 485.365C336.785 486.33 322.117 476.87 322.117 476.87C322.117 476.87 325.012 467.023 327.714 465.093Z" fill="#F18969"/>
<path d="M313.239 454.474C316.906 448.875 325.205 457.177 327.907 463.162C330.802 469.147 332.732 470.306 332.732 470.306C332.732 470.306 324.433 473.588 324.433 479.573C324.626 479.573 305.326 466.83 313.239 454.474Z" fill="#ADBEC4"/>
<path d="M338.329 471.85C338.329 471.85 343.347 467.023 360.138 460.845L358.015 454.281C359.945 451.964 363.419 451.964 363.419 451.964C363.419 451.964 371.911 463.548 370.56 467.023C369.595 469.147 351.646 471.464 338.329 471.85Z" fill="#EE6F4D"/>
<path d="M356.664 462.39C356.664 462.39 356.857 461.618 357.436 460.845C358.015 460.073 357.822 458.529 358.015 457.949C358.208 457.563 359.559 455.633 360.331 455.247C361.296 454.86 362.261 454.281 362.647 455.247C362.84 456.212 361.103 456.019 360.331 457.563C360.331 457.563 362.068 456.984 363.419 457.37C364.77 457.756 365.156 458.915 363.419 458.915C362.068 458.915 360.331 459.88 360.331 459.88C360.331 459.88 362.068 460.073 361.875 460.845C361.489 462.004 359.366 461.425 356.664 462.39Z" fill="#F18969"/>
<path d="M233.53 484.206C235.074 487.874 241.057 494.052 241.057 494.052C241.057 494.052 255.918 485.558 262.866 489.033C269.814 492.701 275.218 494.825 279.657 493.28C284.096 491.736 264.989 458.529 264.989 458.529L240.285 449.455C240.285 449.455 239.706 455.44 237.004 456.598C234.109 457.756 231.214 467.603 231.407 469.533C231.407 471.271 233.53 484.206 233.53 484.206Z" fill="#406676"/>
<path d="M261.322 494.246C261.322 494.246 254.953 506.216 241.829 521.661C241.829 521.661 240.478 540.002 205.545 568.575L201.878 565.873C201.878 565.873 222.722 534.789 226.775 525.136C231.021 515.676 224.459 506.795 243.566 482.662L261.322 494.246Z" fill="#EE6F4D"/>
<path d="M241.057 473.008C235.653 483.048 233.723 495.983 233.723 495.983L231.214 501.968C231.214 501.968 240.092 506.602 250.321 508.146L254.374 497.721L241.057 473.008Z" fill="#672C34"/>
<path d="M269.814 493.28C269.814 493.28 272.516 506.409 272.13 526.294C272.13 526.294 282.938 541.353 274.06 584.6H269.428C269.428 584.6 265.568 547.724 262.673 537.878C259.778 527.839 248.97 524.943 248.391 494.632L269.814 493.28Z" fill="#F18969"/>
<path d="M272.516 507.567C272.516 507.567 263.831 509.112 248.391 508.339L248.198 506.602V506.216L246.654 495.404C246.654 495.404 245.11 493.666 243.566 490.77C243.373 490.384 243.18 490.191 242.987 489.805C240.864 485.558 239.127 479.38 241.057 473.008L244.338 473.202H244.724L255.532 473.588H255.918L259.585 473.781H260.164L262.48 473.974C262.48 473.974 274.253 484.206 272.13 502.933L272.323 505.636V506.023L272.516 507.567Z" fill="#8C393F"/>
<path d="M244.724 473.202C244.338 473.974 242.408 480.345 243.373 490.77C243.18 490.384 242.987 490.191 242.794 489.805C242.022 480.345 243.759 474.36 244.145 473.202C244.145 473.008 244.145 473.008 244.145 473.008L244.724 473.202Z" fill="#672C34"/>
<path d="M272.323 506.023C269.235 506.795 264.024 506.988 259.006 506.988C254.567 506.988 250.321 506.795 248.005 506.795V506.409C251.865 506.602 262.287 506.988 268.849 506.216L268.463 499.458C268.656 491.543 266.147 484.978 263.638 480.345C257.655 479.38 255.918 474.939 255.532 473.781C255.532 473.588 255.532 473.395 255.532 473.395H255.918C255.918 473.395 255.918 473.588 256.111 473.781C256.497 474.939 258.041 478.8 263.445 479.766C261.901 476.677 260.357 474.746 259.585 473.781C259.392 473.588 259.199 473.395 259.199 473.395L259.585 473.202C259.585 473.202 259.778 473.395 260.164 473.974C262.094 476.677 269.042 486.523 268.849 499.458L269.235 506.216C270.393 506.023 271.358 505.829 272.323 505.636V506.023Z" fill="#672C34"/>
<path d="M250.128 427.831C246.654 426.094 221.757 435.361 221.757 435.361C221.757 435.361 218.09 441.732 220.406 444.242C222.722 446.752 230.828 445.593 233.337 444.242C235.846 442.89 242.408 441.732 242.408 441.732L250.128 427.831Z" fill="#8BBDDB"/>
<path d="M272.13 407.946C272.13 407.946 277.341 409.876 279.271 415.475C281.201 421.074 275.604 435.554 277.534 442.118C279.464 448.682 279.271 461.232 273.095 463.934C266.919 466.637 254.567 461.811 251.865 454.667C249.163 447.524 250.321 420.109 255.532 410.649C260.55 401.381 270.972 406.208 272.13 407.946Z" fill="#E84254"/>
<path d="M266.34 432.465C267.691 433.816 271.165 431.306 271.165 431.306C271.165 431.306 271.165 443.663 267.305 444.628C263.445 445.593 253.988 434.782 254.374 431.886C254.76 428.99 263.252 429.376 266.34 432.465Z" fill="#8BBDDB"/>
<path d="M251.672 429.376C251.672 429.376 255.532 432.465 262.094 434.009C268.656 435.554 272.323 432.465 275.797 436.519C280.815 442.697 272.516 454.088 268.27 459.88C266.726 462.004 263.252 468.182 262.48 473.974C262.48 473.974 250.9 477.256 241.057 473.008L240.285 459.494C240.285 459.494 234.109 441.346 251.672 429.376Z" fill="#0F3944"/>
<path d="M263.638 442.504C263.638 442.504 268.849 430.534 270.393 429.762C271.937 428.99 275.797 430.92 276.569 432.465C277.341 434.202 276.569 437.678 276.569 437.678C276.569 437.678 272.516 433.237 263.638 442.504Z" fill="#8BBDDB"/>
<path d="M288.921 493.28C286.605 497.914 280.622 499.265 280.622 499.265C280.622 499.265 280.236 498.686 279.464 497.528C279.464 497.335 279.271 497.335 279.271 497.142C274.639 489.998 260.55 467.023 260.743 455.053C261.129 440.767 270.779 432.851 270.779 432.851C275.797 434.009 277.341 435.361 277.341 435.361C277.341 435.361 279.078 443.47 277.534 453.316C275.99 463.162 273.288 465.672 274.639 466.444C275.99 467.217 274.639 468.568 274.639 468.568C274.639 468.568 282.745 479.573 284.289 482.855C285.254 484.978 286.991 488.84 287.956 491.157C287.956 491.35 288.149 491.543 288.149 491.736C288.535 492.701 288.921 493.28 288.921 493.28Z" fill="#6297B2"/>
<path d="M274.639 435.361C274.639 435.361 268.849 439.608 272.13 445.979L288.342 462.197C279.464 471.271 278.499 475.132 272.13 479.187L274.639 482.855C274.639 482.855 297.22 466.251 297.22 462.197C297.22 460.266 283.517 439.222 274.639 435.361Z" fill="#F18969"/>
<path d="M271.744 478.993C271.744 478.993 268.656 479.38 266.726 479.766C264.796 480.152 262.094 480.731 262.094 481.117C262.094 481.503 266.34 481.117 266.34 481.117C266.34 481.117 262.673 482.469 262.673 483.048C262.673 483.627 267.305 482.662 267.305 482.662C267.305 482.662 264.41 484.399 264.603 484.785C264.796 485.172 268.463 484.013 268.463 484.013C268.463 484.013 267.884 485.558 267.112 486.523C267.112 486.523 267.884 486.909 269.235 485.365C270.586 483.82 272.902 484.399 274.639 483.048C276.376 481.889 273.481 478.8 271.744 478.993Z" fill="#F18969"/>
<path d="M255.146 431.306C255.146 431.306 250.707 434.009 247.812 440.767C244.917 447.524 236.039 460.073 233.916 463.162C231.793 466.444 233.337 484.013 233.337 484.013C233.337 484.013 230.635 473.395 229.477 469.147C228.319 464.9 233.144 454.667 233.916 454.088C234.688 453.509 238.355 454.474 237.776 450.42C237.197 446.366 247.233 428.217 249.935 427.638C250.128 427.831 254.374 428.604 255.146 431.306Z" fill="#6297B2"/>
<path d="M241.443 432.272C241.443 432.465 241.25 432.465 241.25 432.658C240.285 434.009 238.355 435.168 238.355 435.168C238.355 435.168 234.881 439.801 234.881 440.187C234.881 440.574 228.898 444.821 226.389 444.628C226.003 444.628 225.81 444.435 225.617 444.435C224.073 443.083 230.828 431.306 232.372 428.797C232.372 428.604 232.565 428.411 232.565 428.411V428.217C232.565 428.217 231.407 423.97 236.425 424.742C240.671 425.321 241.443 428.604 241.829 430.727C241.829 431.306 241.636 431.693 241.443 432.272Z" fill="#6297B2"/>
<path d="M223.88 436.712C227.354 432.465 239.513 423.97 245.882 421.46L247.426 424.356C247.426 424.356 235.074 434.782 232.179 439.222C229.284 443.663 225.617 445.593 222.336 444.049C218.862 442.504 223.108 437.678 223.88 436.712Z" fill="#F18969"/>
<path d="M240.285 431.306L239.706 432.079L239.32 432.465L238.162 433.623C238.162 433.623 235.46 436.712 235.46 438.064C235.46 439.029 230.249 443.083 226.196 444.821C224.459 445.593 223.108 445.786 222.143 445.4C219.248 443.856 219.827 438.836 221.564 435.554C223.108 432.658 229.477 428.99 231.214 428.024C231.407 427.831 231.6 427.831 231.6 427.831L232.179 425.515C232.179 425.515 234.495 424.163 236.232 424.935C236.232 424.935 232.372 425.128 232.951 426.48C233.723 427.831 239.127 431.306 240.285 431.306Z" fill="#8BBDDB"/>
<path d="M254.374 419.337C250.514 420.881 250.9 424.356 247.426 424.356C245.11 424.356 244.917 421.846 244.917 421.846C245.882 419.723 246.654 416.247 246.654 414.51C246.847 412.772 247.426 413.545 247.426 413.545C247.426 413.352 247.426 413.158 247.426 413.158C247.426 412 247.233 411.228 248.005 411.614C248.97 412.193 249.163 415.475 249.163 415.475C249.935 410.842 248.777 410.069 249.742 410.456C250.9 411.035 250.9 415.282 250.9 415.282C251.865 412.579 251.672 411.035 252.251 411.614C252.83 412.193 251.865 417.213 251.479 419.143C251.479 419.53 251.286 419.723 251.286 419.723C254.374 418.178 254.374 419.337 254.374 419.337Z" fill="#F18969"/>
<path d="M251.479 418.95C251.479 419.336 251.286 419.53 251.286 419.53C251.286 419.53 249.935 419.336 248.777 420.881C248.777 421.074 249.163 418.95 251.479 418.95Z" fill="#EE6F4D"/>
<path d="M247.619 416.827C247.619 416.441 247.812 414.124 247.426 413.352C247.426 413.158 247.426 412.965 247.426 412.965C248.391 413.158 247.812 416.247 247.619 416.827Z" fill="#EE6F4D"/>
<path d="M250.128 436.712C250.128 436.712 252.83 429.762 253.602 428.217C254.374 426.673 258.813 426.866 262.287 427.445C265.568 428.024 266.34 432.272 266.34 432.272C266.34 432.272 256.111 427.831 250.128 436.712Z" fill="#8BBDDB"/>
<path d="M267.305 423.005C267.305 423.005 264.024 428.604 264.217 434.975C264.217 434.975 259.006 438.257 257.076 434.202C257.076 434.202 259.006 428.604 258.041 421.267C257.462 416.054 267.305 423.005 267.305 423.005Z" fill="#EE6F4D"/>
<path d="M257.076 415.282C257.076 415.282 256.111 412 254.374 414.317C252.444 417.02 254.374 419.53 255.532 418.95C256.497 418.178 257.076 415.282 257.076 415.282Z" fill="#F18969"/>
<path d="M272.13 423.584C272.13 423.584 275.604 422.619 274.446 425.321C273.095 428.217 269.814 428.024 269.814 426.866C269.814 425.515 272.13 423.584 272.13 423.584Z" fill="#F18969"/>
<path d="M258.427 429.376C253.602 426.866 252.637 422.232 258.041 413.351C260.743 408.718 264.989 407.173 270.393 410.069C275.797 412.965 276.376 417.02 273.674 421.653C267.884 431.306 263.445 432.079 258.427 429.376Z" fill="#F18969"/>
<path d="M270.007 423.97C269.814 424.549 269.042 424.742 268.463 424.549C267.884 424.356 267.498 423.777 267.691 423.198C267.884 422.619 268.656 422.426 269.235 422.619C269.814 423.005 270.2 423.584 270.007 423.97Z" fill="#DC624E"/>
<path d="M259.971 418.95C259.585 419.337 259.006 419.53 258.427 419.143C257.848 418.757 257.655 418.178 257.848 417.599C258.234 417.213 258.813 417.02 259.392 417.406C260.164 417.792 260.357 418.564 259.971 418.95Z" fill="#DC624E"/>
<path d="M270.779 418.178C270.586 418.178 270.586 418.178 270.586 417.985C270.393 417.02 269.042 416.441 269.042 416.441C268.849 416.441 268.849 416.247 268.849 416.054C268.849 415.861 269.042 415.861 269.235 415.861C269.235 415.861 270.586 416.634 270.972 417.792C270.972 417.985 270.972 418.178 270.779 418.178Z" fill="#1D4C55"/>
<path d="M264.217 413.738C264.024 413.738 264.024 413.738 264.217 413.738C264.024 413.738 262.866 412.965 261.901 413.352C261.708 413.352 261.515 413.351 261.515 413.158C261.515 412.965 261.515 412.965 261.708 412.772C263.059 412.386 264.41 413.158 264.41 413.158C264.603 413.158 264.603 413.351 264.41 413.545C264.41 413.738 264.217 413.738 264.217 413.738Z" fill="#1D4C55"/>
<path d="M268.849 420.302C268.463 420.881 267.884 421.267 267.691 421.074C267.305 420.881 267.305 420.302 267.691 419.723C268.077 419.143 268.656 418.757 268.849 418.95C269.042 419.143 269.042 419.723 268.849 420.302Z" fill="#1D4C55"/>
<path d="M262.094 416.827C261.708 417.406 261.129 417.792 260.936 417.599C260.55 417.406 260.55 416.827 260.936 416.247C261.322 415.668 261.901 415.282 262.094 415.475C262.287 415.668 262.287 416.247 262.094 416.827Z" fill="#1D4C55"/>
<path d="M259.585 422.812C259.585 422.812 262.287 424.742 264.41 424.935C264.41 424.935 262.287 426.673 260.743 425.515C259.199 424.356 259.585 422.812 259.585 422.812Z" fill="#1D4C55"/>
<path d="M267.305 419.143C267.305 419.143 268.656 417.985 269.042 418.371C269.621 418.757 269.235 420.302 269.235 420.302H270.393L269.428 419.916C269.428 419.916 269.814 418.371 269.235 418.178C268.463 417.792 267.305 419.143 267.305 419.143Z" fill="#1D4C55"/>
<path d="M262.48 416.827C262.48 416.827 262.866 415.089 262.287 414.896C261.708 414.703 260.55 415.668 260.55 415.668L259.971 414.703L260.743 415.282C260.743 415.282 261.901 414.317 262.48 414.51C263.252 415.089 262.48 416.827 262.48 416.827Z" fill="#1D4C55"/>
<path d="M271.551 412C271.551 412 269.814 409.683 267.498 411.614C265.182 413.351 259.778 416.441 257.076 415.475C254.374 414.51 262.866 403.698 270.2 406.98C277.534 410.069 276.762 420.302 273.867 423.584C270.779 426.866 272.323 423.777 272.323 423.777C272.323 423.777 272.516 419.143 273.481 416.054C274.446 412.772 271.551 412 271.551 412Z" fill="#E84254"/>
<path d="M263.445 421.653C263.252 421.653 263.252 421.653 263.059 421.653L263.252 421.074C263.831 421.267 264.024 421.074 264.024 420.881C264.217 420.688 264.217 420.302 264.024 420.109C264.024 420.109 263.831 420.109 263.638 420.109L263.445 419.53C264.024 419.143 264.41 419.53 264.603 419.53C264.989 419.916 264.989 420.495 264.603 420.881C264.41 421.46 264.024 421.653 263.445 421.653Z" fill="#DC624E"/>
<path d="M298.764 461.425C298.571 465.479 287.956 478.607 286.219 479.187C285.833 479.38 285.254 479.573 284.868 479.766C284.675 479.959 284.482 479.959 284.289 480.152C283.324 480.924 282.552 481.889 282.552 481.889C279.464 481.696 270.972 477.835 273.674 477.063C273.867 477.063 274.06 476.87 274.253 476.87C274.446 476.87 274.446 476.677 274.639 476.677C277.92 474.167 284.096 463.548 284.289 462.776C284.289 461.811 285.447 461.811 285.447 461.811C285.447 461.811 279.464 453.509 275.99 452.351C272.516 451.385 270.779 447.331 270.779 447.331C267.305 433.43 277.341 435.747 277.341 435.747C284.482 439.608 298.957 457.37 298.764 461.425Z" fill="#8BBDDB"/>
<path d="M284.868 479.766C284.675 479.959 284.482 479.959 284.289 480.152C279.657 479.766 275.604 477.642 274.253 476.677C274.446 476.677 274.446 476.484 274.639 476.484C276.183 477.449 280.236 479.573 284.868 479.766Z" fill="#406676"/>
<path d="M241.443 432.272C241.443 432.465 241.25 432.465 241.25 432.658C240.671 432.658 239.899 432.465 239.32 432.465C236.232 431.886 233.916 430.148 232.372 428.797C231.986 428.411 231.793 428.217 231.407 427.831C231.6 427.638 231.793 427.638 231.793 427.638C231.986 427.831 232.372 428.217 232.565 428.411C234.109 429.955 236.618 431.5 239.706 432.079C240.092 432.272 240.671 432.272 241.443 432.272Z" fill="#406676"/>
<path d="M288.149 491.736C286.798 494.053 284.096 496.948 279.464 497.528C279.464 497.335 279.271 497.335 279.271 497.142C284.096 496.369 286.605 493.473 287.956 491.157C287.956 491.35 288.149 491.543 288.149 491.736Z" fill="#406676"/>
<path d="M208.826 567.61C208.826 567.61 207.668 568.575 206.51 570.506C205.352 572.437 206.703 574.174 201.106 578.422C201.106 578.422 190.105 572.244 185.087 564.328C185.087 564.328 185.087 562.011 187.596 561.432C188.947 561.239 192.421 562.784 195.895 563.363C196.474 563.363 196.86 563.556 197.439 563.556C198.018 563.556 198.597 563.556 199.176 563.556C199.755 563.556 200.141 563.363 200.72 563.17C201.878 562.784 202.843 561.818 203.229 560.274C203.229 560.274 206.124 561.818 204.194 564.521C204.387 564.714 207.861 563.17 208.826 567.61Z" fill="#D9DFE4"/>
<path d="M201.299 578.422C201.299 578.422 190.298 572.244 185.28 564.328C185.28 564.328 187.21 563.942 188.754 566.645C190.105 569.155 202.264 575.333 201.299 578.422Z" fill="#ADBEC4"/>
<path d="M201.299 566.066C200.334 567.417 200.334 564.907 199.176 563.749C199.755 563.749 200.141 563.556 200.72 563.363C201.299 563.942 202.071 564.907 201.299 566.066Z" fill="#ADBEC4"/>
<path d="M197.825 566.066C196.86 566.838 196.667 564.714 196.088 563.556C196.667 563.556 197.053 563.749 197.632 563.749C198.018 564.328 198.597 565.293 197.825 566.066Z" fill="#ADBEC4"/>
<path d="M276.955 595.025H261.322C261.322 595.025 260.743 592.902 261.322 590.585C261.515 589.619 263.252 588.654 264.796 587.303C265.182 586.917 265.568 586.53 265.954 586.144C266.34 585.758 266.533 585.372 266.726 584.986C266.919 584.6 267.305 584.021 267.305 583.441C267.498 582.283 267.498 580.932 266.726 579.387C266.726 579.387 272.13 578.229 273.867 581.125C273.867 581.125 274.06 579.773 275.797 580.739C275.797 580.739 275.604 583.248 275.797 585.565C276.183 587.882 278.306 588.461 276.955 595.025Z" fill="#D9DFE4"/>
<path d="M272.902 586.144C272.709 586.337 272.516 586.337 272.323 586.337C272.13 586.337 271.937 586.337 271.937 586.144C271.165 585.565 269.428 584.6 266.726 585.179C266.919 584.793 267.305 584.214 267.305 583.634C268.27 583.248 270.393 583.055 272.709 584.986C273.095 585.372 273.095 585.758 272.902 586.144Z" fill="#ADBEC4"/>
<path d="M271.551 588.654C271.165 589.04 270.779 589.233 270.586 589.04C269.428 588.461 267.112 587.303 264.796 587.689C265.182 587.303 265.568 586.917 265.954 586.53C267.112 586.337 269.235 586.144 271.358 587.882C271.551 587.882 271.744 588.268 271.551 588.654Z" fill="#ADBEC4"/>
<path d="M506.432 58.6917V54.4443H507.204V58.6917H506.432Z" fill="url(#paint0_linear_4_1298)"/>
<path d="M506.432 322.804V318.557H507.204V322.804H506.432Z" fill="url(#paint1_linear_4_1298)"/>
<path d="M552.366 273.766H548.12V274.538H552.366V273.766Z" fill="url(#paint2_linear_4_1298)"/>
<path d="M552.366 102.71H548.12V103.483H552.366V102.71Z" fill="url(#paint3_linear_4_1298)"/>
<path d="M49.794 58.6917V54.4443H49.022V58.6917H49.794Z" fill="url(#paint4_linear_4_1298)"/>
<path d="M49.794 322.804V318.557H49.022V322.804H49.794Z" fill="url(#paint5_linear_4_1298)"/>
<path d="M3.66699 274.538H8.10599V273.766H3.66699V274.538Z" fill="url(#paint6_linear_4_1298)"/>
<path d="M3.66699 103.483H8.10599V102.71H3.66699V103.483Z" fill="url(#paint7_linear_4_1298)"/>
<path d="M517.24 57.5333H408.195C408.774 58.1125 409.16 58.8848 409.546 59.657C415.529 71.627 421.898 82.0525 424.6 95.374C426.144 102.517 426.916 109.854 427.302 116.997C427.302 118.735 427.302 120.279 427.302 122.017C429.618 135.725 430.39 149.432 429.618 163.14C430.004 165.263 430.004 167.194 430.39 169.318C430.583 170.669 430.39 171.828 430.197 172.793C430.39 173.565 430.39 174.337 430.39 175.11V176.075C430.39 176.461 430.39 177.04 430.39 177.426C430.197 179.936 429.811 182.446 429.232 184.956C429.039 185.342 429.039 185.728 428.846 185.921C428.653 186.887 428.846 187.659 429.039 188.431C430.197 189.396 431.162 190.555 431.741 191.713C432.32 192.679 432.899 193.837 433.285 194.995C433.864 196.733 434.057 198.471 434.25 200.208C434.25 200.594 434.25 200.787 434.443 201.173C434.443 201.946 434.443 202.525 434.443 203.297C434.443 204.649 434.443 206 434.443 207.352C434.443 208.124 434.25 208.703 434.25 209.475C434.057 211.406 433.864 213.337 433.285 215.267C433.285 215.46 433.285 215.46 433.092 215.653C433.092 216.232 432.899 217.005 432.899 217.584C432.513 219.128 432.127 220.48 431.548 222.024C431.162 224.148 430.583 226.272 430.004 228.396C429.811 229.361 429.425 230.133 429.039 230.905C429.039 231.292 429.039 231.678 429.039 232.257C428.46 236.118 427.109 239.979 425.565 243.841C424.407 248.281 422.863 252.529 420.547 256.583C419.968 257.741 419.003 258.514 418.231 259.479C417.652 260.251 417.073 261.023 416.494 261.989C415.722 262.954 414.95 263.533 414.178 264.113C413.792 264.499 413.406 264.692 412.634 265.271C412.055 265.85 411.476 266.236 410.897 266.622C409.353 267.588 407.423 267.974 405.686 268.167C404.914 268.939 403.756 269.518 402.791 270.098C402.598 270.677 402.598 271.256 402.405 271.835C401.826 274.731 400.861 277.434 400.089 280.137C400.282 283.226 399.51 285.543 398.159 287.28C397.773 288.825 397.387 290.176 396.808 291.528C396.229 292.879 395.65 294.038 394.685 295.196C394.299 295.968 394.106 296.547 393.72 297.32C393.527 297.706 393.334 298.285 393.141 298.671C393.141 298.864 392.948 299.057 392.948 299.057C392.176 300.988 391.404 302.919 390.439 304.849C390.053 306.973 388.895 309.29 386.772 311.22C377.122 319.908 360.331 314.695 348.751 315.275C342.189 315.661 335.241 316.626 329.837 314.502C329.258 314.502 328.872 314.502 328.293 314.502C313.432 315.468 298.764 316.626 283.903 316.24C270.007 316.047 256.111 315.468 242.215 315.468C235.846 315.468 229.67 314.889 223.301 315.468C217.511 316.047 212.493 316.24 206.896 314.695C205.545 314.309 204.387 313.923 203.422 313.151C200.72 312.572 198.404 311.027 196.281 308.131C191.842 301.76 188.175 295.196 185.473 288.053C185.087 287.087 184.701 286.315 184.315 285.35C183.736 283.805 183.35 282.261 183.157 280.716C181.034 277.434 179.49 273.959 178.332 270.291C175.244 270.484 172.156 269.518 169.647 267.008C169.454 266.815 169.454 266.815 169.454 266.622C168.103 266.043 166.752 264.885 165.594 263.533C157.488 253.494 152.663 241.138 149.575 228.589C146.873 217.391 144.171 205.035 148.224 194.223C147.452 192.679 146.873 190.748 147.066 188.431C147.645 174.531 147.066 160.63 148.224 146.922C148.224 146.15 148.417 145.571 148.61 144.799C147.838 136.497 150.54 128.388 151.119 120.086C152.084 109.661 153.049 99.0422 157.102 89.1959C157.488 88.2306 157.874 87.4584 158.453 86.6861C159.418 84.1763 160.383 81.6664 161.927 79.1566C161.927 78.7704 162.12 78.3843 162.313 77.9982C163.857 73.7508 165.594 69.3103 168.296 65.8351C168.682 65.449 168.875 65.0628 169.261 64.6767C169.454 63.5183 169.84 62.3599 170.419 61.3946C170.998 60.2362 171.577 59.2709 172.349 58.3056C172.349 58.1125 172.542 58.1125 172.542 57.9195H38.986C21.423 57.9195 7.14099 72.2062 7.14099 89.7751V287.666C7.14099 305.235 21.423 319.522 38.986 319.522H517.24C534.803 319.522 549.085 305.235 549.085 287.666V89.5821C549.278 71.8201 534.996 57.5333 517.24 57.5333Z" fill="#020203"/>
<path d="M203.229 312.765C200.527 312.186 198.211 310.641 196.088 307.745C191.649 301.374 187.982 294.81 185.28 287.666C184.894 286.701 184.508 285.929 184.122 284.964C183.543 283.419 183.157 281.874 182.964 280.33C180.841 277.048 179.297 273.573 178.139 269.904C175.051 270.098 171.963 269.132 169.454 266.622C169.261 266.429 169.261 266.429 169.261 266.236C167.91 265.657 166.559 264.499 165.401 263.147C157.295 253.108 152.47 240.752 149.382 228.202C146.68 217.005 143.978 204.649 148.031 193.837C147.259 192.292 146.68 190.362 146.873 188.045C147.452 174.144 146.873 160.244 148.031 146.536C148.031 145.764 148.224 145.185 148.417 144.412C147.645 136.111 150.347 128.002 150.926 119.7C151.891 109.275 152.856 98.6561 156.909 88.8098C157.295 87.8445 157.681 87.0722 158.26 86.3C159.225 83.7901 160.19 81.2803 161.734 78.7704C161.734 78.3843 161.927 77.9982 162.12 77.6121C163.664 73.3646 165.401 68.9241 168.103 65.449C168.489 65.0629 168.682 64.6767 169.068 64.2906C169.261 63.1322 169.647 61.9738 170.226 61.0085C170.226 61.0085 170.226 60.8154 170.419 60.8154H41.302C24.511 60.8154 11.001 74.33 11.001 91.1266V283.805C11.001 300.602 24.511 314.116 41.302 314.116H206.317C205.159 313.73 204.001 313.344 203.229 312.765Z" fill="white"/>
<path d="M514.152 60.8154H410.125C415.915 72.2062 422.091 82.6317 424.793 95.5671C426.337 102.71 427.109 110.047 427.495 117.19C427.495 118.928 427.495 120.472 427.495 122.21C429.811 135.918 430.583 149.625 429.811 163.333C430.197 165.456 430.197 167.387 430.583 169.511C430.776 170.862 430.583 172.021 430.39 172.986C430.583 173.758 430.583 174.531 430.583 175.303V176.268C430.583 176.654 430.583 177.233 430.583 177.62C430.39 180.129 430.004 182.639 429.425 185.149C429.232 185.535 429.232 185.921 429.039 186.114C428.846 187.08 429.039 187.852 429.232 188.624C430.39 189.59 431.355 190.748 431.934 191.906C432.513 192.872 433.092 194.03 433.478 195.188C434.057 196.926 434.25 198.664 434.443 200.401C434.443 200.787 434.443 200.98 434.636 201.367C434.636 202.139 434.636 202.718 434.636 203.49C434.636 204.842 434.636 206.193 434.636 207.545C434.636 208.317 434.443 208.896 434.443 209.668C434.25 211.599 434.057 213.53 433.478 215.46C433.478 215.653 433.478 215.653 433.285 215.846C433.285 216.426 433.092 217.198 433.092 217.777C432.706 219.322 432.32 220.673 431.741 222.217C431.355 224.341 430.776 226.465 430.197 228.589C430.004 229.554 429.618 230.326 429.232 231.098C429.232 231.485 429.232 231.871 429.232 232.45C428.653 236.311 427.302 240.173 425.758 244.034C424.6 248.474 423.056 252.722 420.74 256.776C420.161 257.934 419.196 258.707 418.424 259.672C417.845 260.444 417.266 261.217 416.687 262.182C415.915 263.147 415.143 263.726 414.371 264.306C413.985 264.692 413.599 264.885 412.827 265.464C412.248 266.043 411.669 266.429 411.09 266.815C409.546 267.781 407.616 268.167 405.879 268.36C405.107 269.132 403.949 269.711 402.984 270.291C402.791 270.87 402.791 271.449 402.598 272.028C402.019 274.924 401.054 277.627 400.282 280.33C400.475 283.419 399.703 285.736 398.352 287.473C397.966 289.018 397.58 290.369 397.001 291.721C396.422 293.072 395.843 294.231 394.878 295.389C394.492 296.161 394.299 296.74 393.913 297.513C393.72 297.899 393.527 298.478 393.334 298.864C393.334 299.057 393.141 299.25 393.141 299.25C392.369 301.181 391.597 303.112 390.632 305.042C390.246 307.166 389.088 309.483 386.965 311.413C385.228 312.958 383.491 313.923 381.368 314.695H514.345C531.136 314.695 544.646 301.181 544.646 284.384V91.1266C544.453 74.33 530.943 60.8154 514.152 60.8154Z" fill="white"/>
<path d="M510.871 214.302V162.947C510.871 157.155 515.696 152.328 521.486 152.328C527.276 152.328 532.101 157.155 532.101 162.947V214.302C532.101 220.094 527.276 224.92 521.486 224.92C515.696 224.92 510.871 220.094 510.871 214.302Z" fill="#020203"/>
<path d="M270.586 242.489L274.253 244.999L276.762 240.752L272.902 238.049L270.586 242.489Z" fill="#020203"/>
<path d="M281.587 235.732C280.236 235.153 269.428 250.212 269.428 252.529C269.428 255.038 271.744 255.618 273.481 253.494C275.218 251.37 283.517 236.697 281.587 235.732Z" fill="#020203"/>
<path d="M279.464 239.207C278.692 238.821 272.902 247.702 272.13 249.247C271.551 250.598 272.709 251.37 273.674 250.019C274.639 249.053 280.622 239.786 279.464 239.207Z" fill="#343434"/>
<g opacity="0.3">
<path d="M195.895 232.836C193 213.336 209.405 194.03 231.6 190.169C255.339 185.921 272.709 198.857 275.411 219.515C278.113 239.014 262.48 259.286 240.092 262.761C217.897 266.236 199.176 254.459 195.895 232.836Z" fill="#B8C2E1"/>
</g>
<g opacity="0.39">
<path d="M215.967 200.594C220.599 197.505 226.003 195.188 231.986 194.223C253.216 190.555 268.656 201.946 271.165 220.48C272.709 231.291 267.884 242.103 259.392 249.633C259.392 249.633 267.112 232.064 251.093 213.336C235.267 194.609 215.967 200.594 215.967 200.594Z" fill="white"/>
</g>
<path d="M185.28 224.148C185.28 224.148 185.087 226.272 188.754 227.044C192.421 227.816 196.088 227.816 196.088 227.816L195.895 224.534L185.28 224.148Z" fill="#020203"/>
<path d="M232.565 264.692C223.494 264.692 215.388 262.182 208.826 257.355C201.106 251.756 196.281 243.261 194.737 233.222C193.193 223.376 196.281 213.336 203.422 205.035C210.37 196.733 220.406 190.941 231.407 189.01C243.566 186.887 254.567 189.01 262.866 194.995C270.393 200.594 275.411 209.282 276.762 219.515C279.657 240.172 262.866 260.637 240.478 264.112C237.776 264.499 235.074 264.692 232.565 264.692ZM240.478 190.748C237.776 190.748 234.881 190.941 231.793 191.52C210.177 195.381 194.351 214.302 197.246 232.836C198.597 242.296 203.229 250.019 210.37 255.231C218.283 261.023 228.705 263.147 240.092 261.41C261.322 258.127 276.955 239.014 274.253 219.708C272.902 210.054 268.463 202.139 261.322 197.119C255.532 192.872 248.391 190.748 240.478 190.748Z" fill="#020203"/>
<path d="M276.569 220.094C275.797 220.094 275.218 219.515 275.218 218.742C275.218 218.742 275.604 212.178 275.604 211.02C275.604 208.317 284.096 203.49 292.781 203.49C293.553 203.49 294.132 204.069 294.132 204.842C294.132 205.614 293.553 206.193 292.781 206.193C284.868 206.193 279.078 210.054 278.113 211.213C278.113 212.95 277.727 218.742 277.727 218.935C277.92 219.515 277.341 220.094 276.569 220.094Z" fill="#020203"/>
<path d="M197.053 218.163C197.053 218.163 192.807 217.97 188.754 219.321C184.701 220.673 184.122 223.376 185.087 224.148C186.052 224.92 195.702 224.534 195.702 224.534L197.053 218.163Z" fill="#020203"/>
<path d="M195.316 218.935C195.316 218.935 187.596 219.901 186.824 221.445C186.052 222.99 194.544 222.024 194.544 222.024L195.316 218.935Z" fill="#262626"/>
<path d="M314.59 242.489L310.923 244.999L308.414 240.752L312.274 238.049L314.59 242.489Z" fill="#020203"/>
<path d="M303.589 235.732C304.94 235.153 315.748 250.212 315.748 252.529C315.748 255.038 313.432 255.618 311.695 253.494C309.958 251.37 301.659 236.697 303.589 235.732Z" fill="#020203"/>
<path d="M305.712 239.207C306.484 238.821 312.274 247.702 313.046 249.247C313.625 250.598 312.467 251.37 311.502 250.019C310.537 249.053 304.554 239.786 305.712 239.207Z" fill="#343434"/>
<g opacity="0.3">
<path d="M389.281 232.836C392.176 213.336 375.771 194.03 353.576 190.169C329.837 185.921 312.467 198.857 309.765 219.515C307.063 239.014 322.696 259.286 345.084 262.761C367.472 266.236 386 254.459 389.281 232.836Z" fill="#B8C2E1"/>
</g>
<g opacity="0.39">
<path d="M374.034 251.756C379.631 247.123 383.491 240.559 384.842 232.064C387.544 214.881 372.876 197.698 353.19 194.223C340.838 192.099 330.416 194.995 323.468 201.56C323.468 201.56 347.593 197.312 363.998 216.232C380.403 235.153 374.034 251.756 374.034 251.756Z" fill="white"/>
</g>
<path d="M400.089 224.148C400.089 224.148 400.282 226.272 396.615 227.044C392.948 227.816 389.281 227.816 389.281 227.816L389.474 224.534L400.089 224.148Z" fill="#020203"/>
<path d="M352.611 264.692C350.102 264.692 347.4 264.499 344.698 264.112C322.117 260.637 305.519 240.172 308.414 219.515C309.765 209.282 314.783 200.594 322.31 194.995C330.609 188.817 341.61 186.887 353.769 189.01C364.963 190.941 374.806 196.733 381.754 205.035C388.895 213.53 391.983 223.569 390.439 233.222C388.895 243.455 384.07 251.756 376.35 257.355C369.981 262.182 361.682 264.692 352.611 264.692ZM344.891 190.748C336.978 190.748 329.837 192.872 324.047 197.119C316.906 202.332 312.467 210.054 311.116 219.708C308.414 239.014 324.047 258.127 345.277 261.41C356.471 263.147 367.086 261.023 374.999 255.231C382.14 250.019 386.579 242.296 388.123 232.836C391.018 214.302 375.192 195.381 353.576 191.52C350.488 190.941 347.593 190.748 344.891 190.748Z" fill="#020203"/>
<path d="M308.607 220.094C307.835 220.094 307.256 219.515 307.256 218.935C307.256 218.742 306.87 212.95 306.87 211.213C306.098 210.054 300.115 206.193 292.202 206.193C291.43 206.193 290.851 205.614 290.851 204.842C290.851 204.069 291.43 203.49 292.202 203.49C300.887 203.49 309.379 208.124 309.379 211.02C309.379 212.371 309.765 218.742 309.765 218.742C309.958 219.515 309.379 220.094 308.607 220.094Z" fill="#020203"/>
<path d="M388.123 218.163C388.123 218.163 392.369 217.97 396.422 219.321C400.475 220.673 401.054 223.376 400.089 224.148C399.124 224.92 389.474 224.534 389.474 224.534L388.123 218.163Z" fill="#020203"/>
<path d="M389.86 218.935C389.86 218.935 397.58 219.901 398.352 221.445C399.124 222.99 390.632 222.024 390.632 222.024L389.86 218.935Z" fill="#262626"/>
</g>
<defs>
<linearGradient id="paint0_linear_4_1298" x1="506.782" y1="54.367" x2="506.782" y2="58.6977" gradientUnits="userSpaceOnUse">
<stop stop-color="#3D57A3"/>
<stop offset="1" stop-color="#284798"/>
</linearGradient>
<linearGradient id="paint1_linear_4_1298" x1="506.782" y1="318.539" x2="506.782" y2="322.87" gradientUnits="userSpaceOnUse">
<stop stop-color="#284798"/>
<stop offset="1" stop-color="#3D57A3"/>
</linearGradient>
<linearGradient id="paint2_linear_4_1298" x1="548.141" y1="274.2" x2="552.47" y2="274.2" gradientUnits="userSpaceOnUse">
<stop stop-color="#284798"/>
<stop offset="1" stop-color="#3D57A3"/>
</linearGradient>
<linearGradient id="paint3_linear_4_1298" x1="548.141" y1="103.037" x2="552.47" y2="103.037" gradientUnits="userSpaceOnUse">
<stop stop-color="#284798"/>
<stop offset="1" stop-color="#3D57A3"/>
</linearGradient>
<linearGradient id="paint4_linear_4_1298" x1="49.4267" y1="54.367" x2="49.4267" y2="58.6977" gradientUnits="userSpaceOnUse">
<stop stop-color="#3D57A3"/>
<stop offset="1" stop-color="#284798"/>
</linearGradient>
<linearGradient id="paint5_linear_4_1298" x1="49.4267" y1="318.539" x2="49.4267" y2="322.87" gradientUnits="userSpaceOnUse">
<stop stop-color="#284798"/>
<stop offset="1" stop-color="#3D57A3"/>
</linearGradient>
<linearGradient id="paint6_linear_4_1298" x1="8.06778" y1="274.2" x2="3.7384" y2="274.2" gradientUnits="userSpaceOnUse">
<stop stop-color="#284798"/>
<stop offset="1" stop-color="#3D57A3"/>
</linearGradient>
<linearGradient id="paint7_linear_4_1298" x1="8.06778" y1="103.037" x2="3.7384" y2="103.037" gradientUnits="userSpaceOnUse">
<stop stop-color="#284798"/>
<stop offset="1" stop-color="#3D57A3"/>
</linearGradient>
<clipPath id="clip0_4_1298">
<rect width="579" height="618" fill="white"/>
</clipPath>
</defs>
</svg>
