<svg width="106" height="87" viewBox="0 0 106 87" fill="none" xmlns="http://www.w3.org/2000/svg">
<path d="M13.535 74.0953C13.9608 74.6383 14.5897 74.9098 15.4217 74.9098C16.2537 74.9098 16.8807 74.6403 17.3025 74.1012C17.7283 73.5582 17.9412 72.7926 17.9412 71.8043C17.9412 70.8043 17.7283 70.0289 17.3025 69.4781C16.8807 68.9274 16.2557 68.652 15.4275 68.652C14.5955 68.652 13.9647 68.9293 13.535 69.484C13.1092 70.0348 12.8963 70.8082 12.8963 71.8043C12.8963 72.7887 13.1092 73.5524 13.535 74.0953ZM15.4158 76.2047C14.1229 76.2047 13.1014 75.8141 12.3514 75.0328C11.6053 74.2477 11.2322 73.1656 11.2322 71.7867C11.2322 70.4 11.6072 69.318 12.3572 68.5406C13.1072 67.7633 14.1287 67.3746 15.4217 67.3746C16.7147 67.3746 17.7342 67.7653 18.4803 68.5465C19.2264 69.3239 19.5994 70.4059 19.5994 71.7926C19.5994 73.1637 19.2244 74.2418 18.4744 75.027C17.7244 75.8121 16.7049 76.2047 15.4158 76.2047ZM20.9588 78.7594V69.6422H22.2772L22.4412 70.5446C22.6522 70.2047 22.9315 69.943 23.2791 69.7594C23.6307 69.5719 24.0213 69.4781 24.451 69.4781C24.9783 69.4781 25.4412 69.6246 25.8397 69.9176C26.242 70.2106 26.5467 70.611 26.7537 71.1188C26.9608 71.6227 27.0643 72.193 27.0643 72.8297C27.0643 73.8258 26.8221 74.6383 26.3377 75.2672C25.8572 75.8922 25.2049 76.2047 24.3807 76.2047C23.9744 76.2047 23.6053 76.1246 23.2733 75.9645C22.9451 75.8004 22.6697 75.5797 22.4471 75.3024C22.4783 75.8649 22.494 76.1813 22.494 76.2516V78.6832L20.9588 78.7594ZM24.0525 75.0328C24.5096 75.0328 24.869 74.8414 25.1307 74.4586C25.3963 74.0758 25.5291 73.5289 25.5291 72.818C25.5291 72.0953 25.3963 71.5524 25.1307 71.1891C24.865 70.8258 24.4959 70.6442 24.0233 70.6442C23.0076 70.6442 22.494 71.3356 22.4822 72.7184C22.4822 73.5153 22.6131 74.1012 22.8748 74.4762C23.1404 74.8473 23.533 75.0328 24.0525 75.0328ZM30.8904 76.1696C30.4529 76.1696 30.0877 76.1188 29.7947 76.0172C29.5057 75.9117 29.2791 75.7477 29.115 75.525C28.951 75.3024 28.8338 75.0406 28.7635 74.7399C28.6971 74.4352 28.6639 74.0602 28.6639 73.6149V70.5739H27.6092L27.6678 69.7418L28.7693 69.6422L29.2615 67.8961L30.199 67.8903V69.6422H31.7986V70.5739H30.199V73.6442C30.199 74.1324 30.2693 74.4801 30.41 74.6871C30.5506 74.8942 30.8104 74.9977 31.1893 74.9977C31.4119 74.9977 31.6502 74.9781 31.9041 74.9391L31.9451 76.0406C31.9373 76.0406 31.8885 76.0504 31.7986 76.0699C31.7127 76.0856 31.6287 76.0992 31.5467 76.111C31.4686 76.1266 31.367 76.1403 31.242 76.152C31.117 76.1637 30.9998 76.1696 30.8904 76.1696ZM33.0643 76.0817V69.6422H34.5994V76.0817H33.0643ZM33.0643 68.7047V67.3922H34.6053V68.7047H33.0643ZM39.0233 76.2047C38.0389 76.2047 37.2713 75.9117 36.7205 75.3258C36.1736 74.7399 35.9002 73.902 35.9002 72.8121C35.9002 71.7574 36.1873 70.9391 36.7615 70.3571C37.3397 69.775 38.0994 69.484 39.0408 69.484C39.7947 69.484 40.4315 69.6461 40.951 69.9703L40.5877 71.066C40.0565 70.7887 39.5623 70.65 39.1053 70.65C38.5858 70.65 38.1756 70.8356 37.8748 71.2067C37.5779 71.5778 37.4295 72.1188 37.4295 72.8297C37.4295 73.5485 37.576 74.0953 37.869 74.4703C38.1658 74.8453 38.5838 75.0328 39.1229 75.0328C39.6854 75.0328 40.2264 74.8668 40.7459 74.5348L40.8924 75.7008C40.6229 75.8805 40.3436 76.0094 40.0545 76.0875C39.7654 76.1656 39.4217 76.2047 39.0233 76.2047ZM43.8104 76.2047C43.2127 76.2047 42.7283 76.0406 42.3572 75.7125C41.99 75.3805 41.8065 74.9039 41.8065 74.2828C41.8065 73.6149 42.0252 73.1207 42.4627 72.8004C42.9002 72.4762 43.5604 72.2711 44.4432 72.1852C44.5643 72.1696 44.6951 72.1539 44.8358 72.1383C44.9764 72.1227 45.1346 72.1071 45.3104 72.0914C45.4861 72.0758 45.6248 72.0621 45.7264 72.0504V71.7106C45.7264 71.3199 45.6365 71.0367 45.4568 70.861C45.2772 70.6813 45.0037 70.5914 44.6365 70.5914C44.1131 70.5914 43.4666 70.7379 42.6971 71.0309C42.6932 71.0192 42.6287 70.8414 42.5037 70.4977C42.3787 70.1539 42.3143 69.9781 42.3104 69.9703C43.0682 69.6461 43.8885 69.484 44.7713 69.484C45.6385 69.484 46.2693 69.6735 46.6639 70.0524C47.0584 70.4274 47.2557 71.0367 47.2557 71.8805V76.0817H46.119C46.115 76.066 46.0721 75.9352 45.99 75.6891C45.908 75.443 45.867 75.3121 45.867 75.2965C45.5467 75.609 45.2322 75.8395 44.9236 75.9879C44.619 76.1324 44.2479 76.2047 43.8104 76.2047ZM44.2264 75.1149C44.5818 75.1149 44.8904 75.0309 45.1522 74.8629C45.4178 74.691 45.6072 74.484 45.7205 74.2418V72.9996C45.7088 72.9996 45.6053 73.0074 45.41 73.0231C45.2186 73.0387 45.115 73.0465 45.0994 73.0465C44.4783 73.1012 44.0233 73.2184 43.7342 73.3981C43.4451 73.5778 43.3006 73.8668 43.3006 74.2653C43.3006 74.5387 43.3807 74.7496 43.5408 74.8981C43.701 75.0426 43.9295 75.1149 44.2264 75.1149ZM51.0584 76.1696C50.617 76.1696 50.2498 76.1188 49.9568 76.0172C49.6678 75.9117 49.4393 75.7457 49.2713 75.5192C49.1033 75.2926 48.9861 75.0231 48.9197 74.7106C48.8533 74.3981 48.8201 74.0094 48.8201 73.5446V67.2692L50.3553 67.1696V73.5153C50.3553 74.0934 50.4236 74.486 50.5604 74.693C50.6971 74.8961 50.9627 74.9977 51.3572 74.9977C51.5525 74.9977 51.8006 74.9762 52.1014 74.9332L52.1424 76.0289C52.1385 76.0289 52.0897 76.0387 51.9959 76.0582C51.9061 76.0778 51.8182 76.0934 51.7322 76.1051C51.6502 76.1207 51.5447 76.1344 51.4158 76.1461C51.2869 76.1617 51.1678 76.1696 51.0584 76.1696ZM56.1854 76.0817V67.4742H59.367C59.8006 67.4742 60.1756 67.4938 60.492 67.5328C60.8123 67.5719 61.115 67.6442 61.4002 67.7496C61.6893 67.8512 61.9217 67.9899 62.0975 68.1656C62.2772 68.3414 62.4178 68.5719 62.5193 68.8571C62.6248 69.1383 62.6775 69.4723 62.6775 69.859C62.6775 70.9996 62.16 71.7496 61.1248 72.109C61.3358 72.3473 61.5975 72.7887 61.91 73.4332L63.1873 76.0817H61.4529L60.451 73.8375C60.0721 73.0328 59.8377 72.5563 59.7479 72.4078C59.6815 72.4039 59.4608 72.402 59.0858 72.402L57.7557 72.3903V76.0817H56.1854ZM59.5076 71.2535C60.117 71.2535 60.5545 71.1461 60.8201 70.9313C61.0858 70.7125 61.2186 70.3629 61.2186 69.8824C61.2186 69.4606 61.0838 69.15 60.8143 68.9508C60.5447 68.7516 60.1326 68.652 59.5779 68.652H57.7557V71.2477C57.8143 71.2477 58.1053 71.2496 58.6287 71.2535C59.1522 71.2535 59.4451 71.2535 59.5076 71.2535ZM67.2244 76.2047C66.1893 76.2047 65.3826 75.9078 64.8045 75.3141C64.2303 74.7164 63.9432 73.8922 63.9432 72.8414C63.9432 71.818 64.2147 71.0035 64.7576 70.3981C65.3006 69.7926 66.0408 69.4879 66.9783 69.484C67.865 69.484 68.5525 69.7614 69.0408 70.316C69.533 70.8707 69.7791 71.6071 69.7791 72.525C69.7791 72.5914 69.7772 72.6989 69.7733 72.8473C69.7733 72.9957 69.7733 73.1051 69.7733 73.1754H65.49C65.5057 73.777 65.6697 74.2438 65.9822 74.5758C66.2986 74.9039 66.7322 75.068 67.283 75.068C67.9861 75.068 68.6619 74.8844 69.3104 74.5172L69.5272 75.6071C68.8826 76.0055 68.115 76.2047 67.2244 76.2047ZM65.5193 72.2086H68.3318C68.3318 71.6852 68.2127 71.2828 67.9744 71.0016C67.7361 70.7203 67.4061 70.5797 66.9842 70.5797C66.5897 70.5797 66.2557 70.7164 65.9822 70.9899C65.7127 71.2633 65.5584 71.6696 65.5193 72.2086ZM72.7088 76.2047C72.1111 76.2047 71.6268 76.0406 71.2557 75.7125C70.8885 75.3805 70.7049 74.9039 70.7049 74.2828C70.7049 73.6149 70.9236 73.1207 71.3611 72.8004C71.7986 72.4762 72.4588 72.2711 73.3416 72.1852C73.4627 72.1696 73.5936 72.1539 73.7342 72.1383C73.8748 72.1227 74.033 72.1071 74.2088 72.0914C74.3846 72.0758 74.5232 72.0621 74.6248 72.0504V71.7106C74.6248 71.3199 74.535 71.0367 74.3553 70.861C74.1756 70.6813 73.9022 70.5914 73.535 70.5914C73.0115 70.5914 72.365 70.7379 71.5955 71.0309C71.5916 71.0192 71.5272 70.8414 71.4022 70.4977C71.2772 70.1539 71.2127 69.9781 71.2088 69.9703C71.9666 69.6461 72.7869 69.484 73.6697 69.484C74.5369 69.484 75.1678 69.6735 75.5623 70.0524C75.9568 70.4274 76.1541 71.0367 76.1541 71.8805V76.0817H75.0174C75.0135 76.066 74.9705 75.9352 74.8885 75.6891C74.8064 75.443 74.7654 75.3121 74.7654 75.2965C74.4451 75.609 74.1307 75.8395 73.8221 75.9879C73.5174 76.1324 73.1463 76.2047 72.7088 76.2047ZM73.1248 75.1149C73.4803 75.1149 73.7889 75.0309 74.0506 74.8629C74.3162 74.691 74.5057 74.484 74.6189 74.2418V72.9996C74.6072 72.9996 74.5037 73.0074 74.3084 73.0231C74.117 73.0387 74.0135 73.0465 73.9979 73.0465C73.3768 73.1012 72.9217 73.2184 72.6326 73.3981C72.3436 73.5778 72.199 73.8668 72.199 74.2653C72.199 74.5387 72.2791 74.7496 72.4393 74.8981C72.5994 75.0426 72.8279 75.1149 73.1248 75.1149ZM79.9568 76.1696C79.5154 76.1696 79.1482 76.1188 78.8553 76.0172C78.5662 75.9117 78.3377 75.7457 78.1697 75.5192C78.0018 75.2926 77.8846 75.0231 77.8182 74.7106C77.7518 74.3981 77.7186 74.0094 77.7186 73.5446V67.2692L79.2537 67.1696V73.5153C79.2537 74.0934 79.3221 74.486 79.4588 74.693C79.5955 74.8961 79.8611 74.9977 80.2557 74.9977C80.451 74.9977 80.699 74.9762 80.9998 74.9332L81.0408 76.0289C81.0369 76.0289 80.9881 76.0387 80.8943 76.0582C80.8045 76.0778 80.7166 76.0934 80.6307 76.1051C80.5486 76.1207 80.4432 76.1344 80.3143 76.1461C80.1854 76.1617 80.0662 76.1696 79.9568 76.1696ZM81.8377 76.0817V69.6422H83.3729V76.0817H81.8377ZM81.8377 68.7047V67.3922H83.3787V68.7047H81.8377ZM87.5506 76.1696C87.1131 76.1696 86.7479 76.1188 86.4549 76.0172C86.1658 75.9117 85.9393 75.7477 85.7752 75.525C85.6111 75.3024 85.4939 75.0406 85.4236 74.7399C85.3572 74.4352 85.324 74.0602 85.324 73.6149V70.5739H84.2693L84.3279 69.7418L85.4295 69.6422L85.9217 67.8961L86.8592 67.8903V69.6422H88.4588V70.5739H86.8592V73.6442C86.8592 74.1324 86.9295 74.4801 87.0701 74.6871C87.2107 74.8942 87.4705 74.9977 87.8494 74.9977C88.0721 74.9977 88.3104 74.9781 88.5643 74.9391L88.6053 76.0406C88.5975 76.0406 88.5486 76.0504 88.4588 76.0699C88.3729 76.0856 88.2889 76.0992 88.2068 76.111C88.1287 76.1266 88.0272 76.1403 87.9022 76.152C87.7772 76.1637 87.66 76.1696 87.5506 76.1696ZM90.0291 78.7946C89.7791 78.7946 89.5135 78.7789 89.2322 78.7477L89.1561 77.5582C89.3357 77.5778 89.5643 77.5875 89.8416 77.5875C90.1971 77.5875 90.4822 77.5172 90.6971 77.3766C90.9119 77.236 91.0897 76.986 91.2303 76.6266C91.2459 76.5875 91.324 76.3668 91.4647 75.9645L88.8748 69.6422H90.5154L92.2088 74.3121C92.3338 73.8473 92.6131 72.984 93.0467 71.7223C93.4842 70.4606 93.7244 69.7672 93.7674 69.6422H95.408C93.6229 74.361 92.7225 76.7399 92.7068 76.7789C92.4295 77.5016 92.0799 78.0172 91.658 78.3258C91.2361 78.6383 90.6932 78.7946 90.0291 78.7946Z" fill="#221763"/>
<g clip-path="url(#clip0_7_89)">
<path d="M78.2842 30.0077C78.2842 43.2865 70.8136 54.5074 60.5601 58.1392C67.2483 54.8025 71.9422 46.9865 71.9422 37.8766C71.9422 25.7327 63.5996 15.8889 53.3075 15.8889C43.0155 15.8889 34.6664 25.7327 34.6664 37.8766C34.6664 46.7595 39.1295 54.409 45.5548 57.8819C35.6539 54.008 28.5168 42.9915 28.5168 30.0077C28.5168 13.7931 39.6553 0.650391 53.4037 0.650391C67.1457 0.650391 78.2842 13.7931 78.2842 30.0077Z" fill="#221763"/>
<path d="M57.5526 19.604C60.6306 21.4426 62.7467 25.2031 62.7467 29.5537C62.7467 29.6445 62.7467 29.7277 62.7467 29.8185C62.7467 29.9093 62.7467 29.9925 62.7467 30.0833C62.7467 36.2347 58.5209 41.2285 53.3011 41.2285C48.0877 41.2285 43.8619 36.2423 43.8619 30.0833C43.8619 29.9925 43.8619 29.9093 43.8619 29.8185C43.8619 29.7277 43.8619 29.6445 43.8619 29.5537C43.8619 25.2031 45.978 21.4351 49.056 19.604C42.2524 21.7982 37.2442 29.1527 37.2442 37.8766C37.2442 48.3408 44.4326 56.8227 53.3011 56.8227C62.1696 56.8227 69.358 48.3408 69.358 37.8766C69.358 29.1527 64.3562 21.7982 57.5526 19.604Z" fill="#221763"/>
</g>
<defs>
<clipPath id="clip0_7_89">
<rect width="49.7674" height="57.4888" fill="white" transform="translate(28.5168 0.650391)"/>
</clipPath>
</defs>
</svg>
